<?xml version="1.0" encoding="utf-8"?>
<!-- Generator: Adobe Illustrator 24.1.3, SVG Export Plug-In . SVG Version: 6.00 Build 0)  -->
<svg version="1.1" xmlns="http://www.w3.org/2000/svg" xmlns:xlink="http://www.w3.org/1999/xlink" x="0px" y="0px"
	 viewBox="0 0 1920 1080" style="enable-background:new 0 0 1920 1080;" xml:space="preserve">
<style type="text/css">
	.st0{fill:#E2BBE7;}
	.st1{fill:#F9E6FC;}
	.st2{fill:#FFFFFF;}
	.st3{fill:#D0A0D8;}
	.st4{fill:#445D7A;}
	.st5{fill:#FCEDFF;stroke:#000000;stroke-miterlimit:10;}
	.st6{opacity:0.2;fill:#B355B6;}
	.st7{fill:#F0C4F8;stroke:#000000;stroke-miterlimit:10;}
	.st8{fill:#9E45A2;}
	.st9{fill:#CB74D0;}
	.st10{fill:#FCE0FF;}
	.st11{fill:#F0C4F8;}
	.st12{opacity:0.3;fill:#FBF4EA;}
	.st13{fill:#FCEDFF;}
	.st14{fill:#253B51;}
	.st15{fill:#B355B6;}
	.st16{opacity:0.5;fill:#B355B6;}
	.st17{fill:#3B1C3D;}
	.st18{opacity:0.21;}
	.st19{fill:none;stroke:#0A0A0A;stroke-miterlimit:10;}
	.st20{fill:#202228;}
	.st21{fill:#FFFFFF;stroke:#0A0A0A;stroke-miterlimit:10;}
	.st22{opacity:0.3;}
	.st23{fill:#EF7D6A;}
	.st24{fill:#4C2D32;}
	.st25{fill:#1A2E35;}
	.st26{opacity:0.3;fill:#FFFFFF;}
	.st27{fill:#FE7E81;}
	.st28{opacity:0.3;fill:none;stroke:#000000;stroke-width:0.25;stroke-linecap:round;stroke-linejoin:round;stroke-miterlimit:10;}
	.st29{display:none;}
	.st30{display:inline;fill:#992632;}
	.st31{fill:none;stroke:#232323;stroke-width:0.75;stroke-miterlimit:10;}
	.st32{fill:#232323;}
	.st33{fill:#4B234D;}
	.st34{opacity:0.18;}
	.st35{fill:#D56D58;}
	.st36{fill:#FFFFFF;stroke:#000000;stroke-miterlimit:10;}
	.st37{fill:none;stroke:#132F38;stroke-width:4;stroke-linecap:round;stroke-linejoin:round;stroke-miterlimit:10;}
	.st38{opacity:0.55;fill:#CB5440;}
	.st39{fill:none;stroke:#FFFFFF;stroke-miterlimit:10;}
	.st40{fill:#7A4075;}
	.st41{fill:#FF9583;}
	.st42{fill:none;stroke:#683A40;stroke-miterlimit:10;}
	.st43{fill:#181819;}
	.st44{fill:none;stroke:#6A3B6B;stroke-miterlimit:10;}
	.st45{fill:#EE73D7;}
	.st46{display:none;fill:#181819;}
	.st47{display:none;fill:#83553A;}
	.st48{display:inline;fill:#982632;}
</style>
<g id="Bg_1_">
	<rect x="124" y="716" class="st0" width="1646.1" height="230.4"/>
</g>
<g id="Bg">
	<g>
		<g>
			<g>
				<g>
					<path class="st1" d="M1253.9,231.3c-170.3,20-327.2-28.6-520.2-88.2C513.8,75.2,261,40.8,161.3,279.9
						c-53,127.1-53.9,355.7,85.3,450.1l1140-24.6c10.9-5.3,317.4-0.1,326.9-5.2c42.6-23.2,108.3-197,34.5-345.9
						C1666.8,190.5,1356.3,219.3,1253.9,231.3z"/>
				</g>
			</g>
		</g>
	</g>
	<path class="st1" d="M919.7,170.6c-16-5.9-32.5-12.8-42.6-25.6c6.4-12.9,25.5-14.6,41-14.5c56.9,0.7,113.8,1.4,170.8,2.1
		c61.6,0.8,123.5,1.5,184.1,11.7c10.6,1.8,23.3,5.8,25.1,15.5c1.3,6.9-3.8,13.3-9.1,18.3c-44.4,42.7-114,36.9-173.6,33.2
		C1048.4,207.1,982.1,193.4,919.7,170.6z"/>
</g>
<g id="Cloud">
	<path class="st2" d="M1010.5,290c1.6-15.4-26.2-28.3-63.8-28.4c-13.2,0-36.3,1.3-45.5,9.8c1.3-35.5-40.9-64-79.3-59
		c-38.4,5.1-68.4,36.6-77.1,71.2c-4.8-18.3-24.6-32.4-45.2-32.2c-20.6,0.3-40,14.9-44.2,33.3c-8.6-20.9-48.2-20.6-56.3,0.5
		c-10.6-16.8-41.5-17.6-53.1-1.4c-11.4-26-41.7-44-72.3-43c-30.6,1-59.5,20.9-68.9,47.5c-17.2-27.7-68.9-28.2-86.6-0.7L1010.5,290z"
		/>
	<path class="st2" d="M479,375.4c-7.3,0-20.1,0.7-25.2,5.4c0.7-19.6-22.6-35.4-43.9-32.6c-21.3,2.8-37.9,20.3-42.7,39.4
		c-2.6-10.2-13.6-17.9-25-17.8c-11.4,0.1-22.1,8.2-24.4,18.4c0-0.1-0.1-0.2-0.1-0.3c-0.1,0.4-0.2,0.7-0.3,1.1
		c-0.2,0.5-0.3,0.9-0.5,1.4l197.4,0.7C515.2,382.6,499.8,375.5,479,375.4z"/>
	<path class="st2" d="M1504.8,393.1c0.9-7.9-13.5-14.6-32.9-14.6c-6.8,0-18.7,0.7-23.5,5.1c0.7-18.3-21.1-33-40.9-30.4
		c-19.8,2.6-35.3,18.9-39.8,36.7c-2.5-9.5-12.7-16.7-23.3-16.6c-10.6,0.1-20.6,7.7-22.8,17.2c-4.4-10.8-24.9-10.6-29,0.3
		c-5.4-8.7-21.4-9.1-27.4-0.7c-5.9-13.4-21.5-22.7-37.3-22.2c-15.8,0.5-30.7,10.8-35.5,24.5c-8.9-14.3-35.5-14.5-44.7-0.4
		L1504.8,393.1z"/>
	<path class="st2" d="M1389.3,315.4c-5.5-15.5-13.3-33.2-30.4-37.7c-11.2-3-24.3,1.5-30.7,10.4c-1.8-17.6-26-27.3-44.6-22.2
		c-18.6,5-31.9,19.6-43.1,34.1c-4.9-16.2-25.2-26-43.4-23.5c-18.2,2.6-33.3,15.5-40.6,30.9c-0.6-7-7.4-13.2-15-13.6
		s-14,10.6-15.5,17.5L1389.3,315.4z"/>
	<path class="st2" d="M739,216c-4.9-13.9-11.8-29.6-27.1-33.7c-10-2.7-21.7,1.3-27.4,9.3c-1.6-15.7-23.2-24.3-39.8-19.9
		c-16.6,4.5-28.5,17.5-38.5,30.5c-4.4-14.5-22.5-23.3-38.8-21c-16.2,2.3-29.7,13.8-36.3,27.6c-0.5-6.3-6.6-11.8-13.4-12.2
		c-6.9-0.4-12.5,9.4-13.8,15.6L739,216z"/>
</g>
<g id="Tree">
	<path class="st3" d="M229.4,567.6c-9.9,2.2-20.2,4.7-27.9,11.3c-7.7,6.6-11.7,18.8-5.9,27.2c-8.1-9.4-22.1-13.3-33.9-9.3
		c-11.8,4-20.6,15.5-21.4,27.9c-18.9,2.8-31.2,23.1-31.9,42.2c-0.3,8.1,1.2,16.6,6.3,22.9c5.1,6.3,14.6,9.4,21.7,5.5
		c-5.4,7.5-11.1,15.7-10.7,24.9c0.5,9.2,10.8,18,18.8,13.4c20.1,12.2,49.5,4.9,61.5-15.3c7.8,10.9,21.7,16,35.1,16.2
		c13.4,0.3,26.4-3.6,39.3-7.4c15.4,9.4,35.6,10.4,51.9,2.7c16.3-7.7,28.3-24,30.8-41.9c4,4.8,11.5,4.7,17.5,2.8
		c19.5-5.9,33.9-25.5,33.6-45.9c-0.2-21.1-15.1-38-34.1-45.2c13.2-21.4-54.2-55.9-71.6-62.1c-15.7-5.6-35-5.1-51.1-1.3
		c-9.1,2.1-22,6.1-27.8,14.2C228.3,552.3,220.8,569.5,229.4,567.6z"/>
	<g>
		<path class="st3" d="M1450.2,428.3c-1.9,1.7-3.8-2.4-2.9-4.8c4.2-11,19.1-15.4,29.5-9.9c10.3,5.5,15.2,18.8,12.6,30.2
			c-2.6,11.4-11.5,20.8-22,25.9c10.6-12.4,32.1-13.1,43.5-1.3c11.3,11.8,9.9,33.3-3,43.4c2.7-9,18.1-6.8,21.2,2
			c3.1,8.8-2.7,18.6-10.1,24.3c5.1-12.9,25.5-15.7,34-4.7c8.4,11,0.3,30-13.5,31.5c3.6-4.8,7.5-9.8,12.9-12.3
			c5.5-2.5,13.1-1.4,15.9,3.9c1.2,2.3,1.4,5,1.3,7.7c-0.4,11.1-4.9,21.9-12.5,30c16-17,30.7,11.4,29.1,30.2
			c-1.1,12.3-11.4,24.1-23.7,23.5c1.5,5.7-3.8,10.7-8.6,14.2c-12,8.8-24.3,17.6-38.3,22.6c-14,5-30.3,5.7-43.3-1.6
			c-16.1,19.1-50.8,16.9-64.4-4c-10.4,6-25.3,2.4-31.8-7.7c-4.5,7.8-15.3,11.1-23.4,7.1c-8.1-3.9-12.1-14.5-8.8-22.8
			c-13.6,2.2-29-2.5-36.1-14.3c-7.1-11.8-1.8-30.2,11.5-33.5c-15.7-12.9-11.5-42.3,7.2-50.3c-7.8-10.8-9.8-25.5-5.1-37.9
			c4.7-12.4,15.8-22.2,28.8-25.2c-5.5-11.7,0.4-26.8,11.4-33.5c11.1-6.7,25.8-5.6,37,0.7C1373.1,422.8,1444.4,391.9,1450.2,428.3z"
			/>
		<path class="st3" d="M1159.3,731.8c-0.8,0.5-1.5,1.2-2.1,1.9c1.6,3,3.6,5.9,5.7,8.5h515.6c1.3-2,2.4-4.2,3.4-6.5
			c3.7,2.3,7.5,4.5,11.4,6.5h68.2c9.1-7.7,14.8-18.7,12.9-30.4c-1.2-7.5-5.7-14.6-12.6-17.7c-6.9-3.1-16.1-1.1-20.1,5.2
			c0.1-8.3,0-17.1-4.8-23.9c-4.7-6.8-16-9.4-21.1-2.9c7.3-12.6-6.8-29.1-21.4-29.1c-13.4,0-24.8,8.9-33.8,19
			c5-8.3-2.8-21.2-12.3-26.4c-21.8-12.1-51.6-7.2-68.5,11.1c2-16-8-32.7-23-38.4c-11.5-4.4-25.1-2-34.9,5.3
			c-0.3-1.3-0.8-2.7-1.3-3.9c-7.9-17.5-28.3-25.9-47.3-27.6c-32.5-2.8-66,9.9-88.3,33.7c-12-13.6-31.2-20.5-49.2-17.8
			c-18,2.8-34.1,15.1-41.5,31.7c-2-9.1-11.2-15.3-20.5-16c-9.3-0.7-18.3,3.1-26,8.3c-18.6,12.6-25,34.6-42.6,47.9
			c-18.3,13.9-32.7,21.1-44.8,42c-2.8,4.9-5.8,10.6-4,15.9C1157,729.8,1158,730.9,1159.3,731.8z"/>
		<path class="st3" d="M1399.5,755.3c8.4,1,16.9,1,25.3,0H1399.5z"/>
	</g>
</g>
<g id="School">
	<g>
		<polygon class="st4" points="642.2,225.8 782.3,118.6 918,225.8 792,231 645.2,228.6 		"/>
		<g>
			
				<rect x="1134.2" y="218.5" transform="matrix(-1 -1.224647e-16 1.224647e-16 -1 2450.2866 963.2329)" class="st5" width="181.8" height="526.2"/>
			
				<rect x="1193" y="421.8" transform="matrix(-1 -1.224647e-16 1.224647e-16 -1 2508.9944 856.3128)" class="st6" width="123" height="12.8"/>
			
				<rect x="1163.8" y="664.1" transform="matrix(-1 -1.224647e-16 1.224647e-16 -1 2479.866 1408.826)" class="st7" width="152.2" height="80.6"/>
			
				<rect x="1171.1" y="651.4" transform="matrix(-1 -1.224647e-16 1.224647e-16 -1 2493.1633 1315.474)" class="st8" width="150.9" height="12.8"/>
			
				<rect x="1134.2" y="218.5" transform="matrix(-1 -1.224647e-16 1.224647e-16 -1 2327.6265 963.2329)" class="st6" width="59.2" height="526.2"/>
			<polygon class="st9" points="1204.7,209 1207.4,209 1328,209 1328,219.2 1207.4,219.2 1204.7,219.2 1122.3,219.2 1122.3,209 			
				"/>
		</g>
		<g>
			<rect x="246.8" y="218.5" class="st5" width="181.8" height="526.2"/>
			<rect x="246.7" y="421.8" class="st6" width="123" height="12.8"/>
			<rect x="246.8" y="664.1" class="st7" width="152.2" height="80.6"/>
			<rect x="240.9" y="651.4" class="st8" width="150.9" height="12.8"/>
			<rect x="369.5" y="218.5" class="st6" width="59.2" height="526.2"/>
			<polygon class="st9" points="358.2,209 355.5,209 234.9,209 234.9,219.2 355.5,219.2 358.2,219.2 440.6,219.2 440.6,209 			"/>
			<g>
				<polygon class="st4" points="246.8,209 330.3,97.2 344,97.2 427.2,209 				"/>
				<path class="st4" d="M369.5,209c1.4,0.3-32.5-111.7-32.5-111.7h7L427.2,209H369.5z"/>
			</g>
		</g>
		<polygon class="st4" points="1000.7,388.6 1000.7,266.4 422,266.4 391.8,388.6 624.1,388.6 		"/>
		<polygon class="st4" points="940.2,388.6 940.2,266.4 1141.3,266.4 1171.4,388.6 940.2,388.6 		"/>
		
			<rect x="939" y="392.4" transform="matrix(-1 -1.224647e-16 1.224647e-16 -1 2110.4304 1136.011)" class="st5" width="232.4" height="351.3"/>
		<rect x="391.7" y="392.4" class="st5" width="232.4" height="351.3"/>
		<rect x="624.1" y="398.6" class="st10" width="316.1" height="348.2"/>
		<polygon class="st9" points="861,388.6 850.2,388.6 382.8,388.6 382.8,398.9 850.2,398.9 861,398.9 1180.3,398.9 1180.3,388.6 		
			"/>
		<polygon class="st7" points="939.1,685.3 939.1,720.3 631.1,720.3 631.1,685.3 391.7,685.3 391.7,745 1171.4,745 1171.4,685.3 		
			"/>
		<g>
			<rect x="828.1" y="398.7" class="st11" width="34.7" height="316.4"/>
			<rect x="820.3" y="398.7" class="st9" width="50.5" height="15.8"/>
			<rect x="823.5" y="705" class="st9" width="44" height="10.1"/>
			<rect x="826" y="464.6" class="st9" width="39.1" height="6.4"/>
			<rect x="826" y="490.6" class="st9" width="39.1" height="6.4"/>
			<rect x="826" y="626" class="st9" width="39.1" height="6.4"/>
			<rect x="826" y="652" class="st9" width="39.1" height="6.4"/>
		</g>
		<g>
			<rect x="700.2" y="399.4" class="st11" width="34.7" height="316.4"/>
			<rect x="692.3" y="399.4" class="st9" width="50.5" height="15.8"/>
			<rect x="695.6" y="705.7" class="st9" width="44" height="10.1"/>
			<rect x="698" y="465.3" class="st9" width="39.1" height="6.4"/>
			<rect x="698" y="491.3" class="st9" width="39.1" height="6.4"/>
			<rect x="698" y="626.7" class="st9" width="39.1" height="6.4"/>
			<rect x="698" y="652.7" class="st9" width="39.1" height="6.4"/>
		</g>
		<rect x="583.3" y="712.1" class="st9" width="397.3" height="16.3"/>
		<rect x="382.8" y="680.4" class="st9" width="223.9" height="13.8"/>
		<rect x="957.3" y="680.4" class="st9" width="223.9" height="13.8"/>
		<g>
			<path class="st10" d="M817.6,606.3c0-18.7-15.7-33.8-35.1-33.8c-19.4,0-35.1,15.1-35.1,33.8c0,0,0,0.1,0,0.1h0V711h70.3V606.5h0
				C817.6,606.4,817.6,606.4,817.6,606.3z"/>
			<path class="st4" d="M812.1,608.4c0-16.4-13.3-29.6-29.6-29.6c-16.4,0-29.6,13.3-29.6,29.6c0,0,0,0.1,0,0.1h0v96h59.3v-96h0
				C812.1,608.5,812.1,608.5,812.1,608.4z"/>
			<rect x="780.8" y="575.7" class="st10" width="3.4" height="133.5"/>
		</g>
		<rect x="642.2" y="235.6" class="st10" width="275.7" height="152.5"/>
		<polygon class="st9" points="809.9,225.8 806.1,225.8 639.2,225.8 639.2,236 806.1,236 809.9,236 923.9,236 923.9,225.8 		"/>
		<g>
			<rect x="602.6" y="398.7" class="st11" width="34.7" height="316.4"/>
			<rect x="594.7" y="398.7" class="st9" width="50.5" height="15.8"/>
			<rect x="598" y="705" class="st9" width="44" height="10.1"/>
			<rect x="600.4" y="464.6" class="st9" width="39.1" height="6.4"/>
			<rect x="600.4" y="490.6" class="st9" width="39.1" height="6.4"/>
			<rect x="600.4" y="626" class="st9" width="39.1" height="6.4"/>
			<rect x="600.4" y="652" class="st9" width="39.1" height="6.4"/>
		</g>
		<g>
			<rect x="925.7" y="399.4" class="st11" width="34.7" height="316.4"/>
			<rect x="917.8" y="399.4" class="st9" width="50.5" height="15.8"/>
			<rect x="921.1" y="705.7" class="st9" width="44" height="10.1"/>
			<rect x="923.5" y="465.3" class="st9" width="39.1" height="6.4"/>
			<rect x="923.5" y="491.3" class="st9" width="39.1" height="6.4"/>
			<rect x="923.5" y="626.7" class="st9" width="39.1" height="6.4"/>
			<rect x="923.5" y="652.7" class="st9" width="39.1" height="6.4"/>
		</g>
		<path class="st12" d="M801.1,291.4v-8.8h0c0,0,0,0,0-0.1c0-7.3-5.4-13.5-13-16l-27.8,42.9v28.7h13.9
			C781.9,324.8,792.6,306.1,801.1,291.4z"/>
		<g>
			<polygon class="st4" points="1134,209 1217.5,97.2 1231.2,97.2 1314.4,209 			"/>
			<path class="st4" d="M1256.7,209c1.4,0.3-32.5-111.7-32.5-111.7h7l83.2,111.7H1256.7z"/>
		</g>
		<g>
			<path class="st4" d="M468.5,491.2h-53.3v-36.3c0-14.7,11.9-26.6,26.6-26.6h0c14.7,0,26.6,11.9,26.6,26.6V491.2z"/>
			<rect x="439.7" y="426" class="st13" width="4.8" height="73.6"/>
			
				<rect x="439.7" y="426" transform="matrix(-1.836970e-16 1 -1 -1.836970e-16 904.9673 20.7313)" class="st13" width="4.8" height="73.6"/>
		</g>
		<g>
			<path class="st4" d="M565.4,491.2h-53.3v-36.3c0-14.7,11.9-26.6,26.6-26.6h0c14.7,0,26.6,11.9,26.6,26.6V491.2z"/>
			<rect x="536.6" y="426" class="st13" width="4.8" height="73.6"/>
			
				<rect x="536.6" y="426" transform="matrix(-1.836970e-16 1 -1 -1.836970e-16 1001.8233 -76.1247)" class="st13" width="4.8" height="73.6"/>
		</g>
		<g>
			<path class="st4" d="M732.9,338.1h-53.3v-36.3c0-14.7,11.9-26.6,26.6-26.6l0,0c14.7,0,26.6,11.9,26.6,26.6V338.1z"/>
			<rect x="704.1" y="273" class="st13" width="4.8" height="73.6"/>
			
				<rect x="704.1" y="273" transform="matrix(-1.836970e-16 1 -1 -1.836970e-16 1016.3516 -396.7178)" class="st13" width="4.8" height="73.6"/>
		</g>
		<g>
			<path class="st4" d="M882.1,338.1h-53.3v-36.3c0-14.7,11.9-26.6,26.6-26.6l0,0c14.7,0,26.6,11.9,26.6,26.6V338.1z"/>
			<rect x="853.3" y="273" class="st13" width="4.8" height="73.6"/>
			
				<rect x="853.3" y="273" transform="matrix(-1.836970e-16 1 -1 -1.836970e-16 1165.5099 -545.876)" class="st13" width="4.8" height="73.6"/>
		</g>
		<g>
			
				<ellipse transform="matrix(0.6392 -0.769 0.769 0.6392 -90.669 777.4655)" class="st4" cx="783.3" cy="485.4" rx="23.7" ry="23.7"/>
			<rect x="780.9" y="448.6" class="st10" width="4.8" height="73.6"/>
			
				<rect x="780.9" y="448.6" transform="matrix(-1.836970e-16 1 -1 -1.836970e-16 1268.6614 -297.9247)" class="st10" width="4.8" height="73.6"/>
		</g>
		<g>
			<path class="st4" d="M807.5,338.1h-53.3v-36.3c0-14.7,11.9-26.6,26.6-26.6h0c14.7,0,26.6,11.9,26.6,26.6V338.1z"/>
			<rect x="778.7" y="273" class="st13" width="4.8" height="73.6"/>
			
				<rect x="778.7" y="273" transform="matrix(-1.836970e-16 1 -1 -1.836970e-16 1090.9308 -471.2969)" class="st13" width="4.8" height="73.6"/>
		</g>
		<g>
			<path class="st4" d="M468.5,614.2h-53.3v-36.3c0-14.7,11.9-26.6,26.6-26.6h0c14.7,0,26.6,11.9,26.6,26.6V614.2z"/>
			<rect x="439.7" y="549.1" class="st13" width="4.8" height="73.6"/>
			
				<rect x="439.7" y="549.1" transform="matrix(-1.836970e-16 1 -1 -1.836970e-16 1027.9744 143.7383)" class="st13" width="4.8" height="73.6"/>
		</g>
		<g>
			<path class="st4" d="M565.4,614.2h-53.3v-36.3c0-14.7,11.9-26.6,26.6-26.6h0c14.7,0,26.6,11.9,26.6,26.6V614.2z"/>
			<rect x="536.6" y="549.1" class="st13" width="4.8" height="73.6"/>
			
				<rect x="536.6" y="549.1" transform="matrix(-1.836970e-16 1 -1 -1.836970e-16 1124.8303 46.8823)" class="st13" width="4.8" height="73.6"/>
		</g>
		<g>
			<path class="st4" d="M1046.7,491.2h-53.3v-36.3c0-14.7,11.9-26.6,26.6-26.6h0c14.7,0,26.6,11.9,26.6,26.6V491.2z"/>
			<rect x="1017.9" y="426" class="st13" width="4.8" height="73.6"/>
			
				<rect x="1017.9" y="426" transform="matrix(-1.836970e-16 1 -1 -1.836970e-16 1483.1974 -557.4987)" class="st13" width="4.8" height="73.6"/>
		</g>
		<g>
			<path class="st4" d="M1143.6,491.2h-53.3v-36.3c0-14.7,11.9-26.6,26.6-26.6h0c14.7,0,26.6,11.9,26.6,26.6V491.2z"/>
			<rect x="1114.8" y="426" class="st13" width="4.8" height="73.6"/>
			
				<rect x="1114.8" y="426" transform="matrix(-1.836970e-16 1 -1 -1.836970e-16 1580.0532 -654.3547)" class="st13" width="4.8" height="73.6"/>
		</g>
		<g>
			<path class="st4" d="M1046.7,614.2h-53.3v-36.3c0-14.7,11.9-26.6,26.6-26.6h0c14.7,0,26.6,11.9,26.6,26.6V614.2z"/>
			<rect x="1017.9" y="549.1" class="st13" width="4.8" height="73.6"/>
			
				<rect x="1017.9" y="549.1" transform="matrix(-1.836970e-16 1 -1 -1.836970e-16 1606.2043 -434.4917)" class="st13" width="4.8" height="73.6"/>
		</g>
		<g>
			<path class="st4" d="M1143.6,614.2h-53.3v-36.3c0-14.7,11.9-26.6,26.6-26.6h0c14.7,0,26.6,11.9,26.6,26.6V614.2z"/>
			<rect x="1114.8" y="549.1" class="st13" width="4.8" height="73.6"/>
			
				<rect x="1114.8" y="549.1" transform="matrix(-1.836970e-16 1 -1 -1.836970e-16 1703.0603 -531.3477)" class="st13" width="4.8" height="73.6"/>
		</g>
		<rect x="594.5" y="380.7" class="st9" width="386.4" height="33.6"/>
	</g>
</g>
<g id="Leaf">
	<g>
		<g>
			<path class="st14" d="M176,768.2c-1.2-1-18.4-43.2-18-47c0.3-3.7,1.2-53.1,1.2-53.1l14.9,68.6L176,768.2z"/>
		</g>
		<g>
			<path class="st14" d="M184.5,807.3c0,0-0.8-19.3,1.9-22.4c2.8-3,38.1-49.2,38.1-49.2l21.5-11l-16.7,15.1L184.5,807.3z"/>
		</g>
		<g>
			<polygon class="st14" points="153.6,769.9 186.3,840.3 193,844.8 189.4,824.9 			"/>
		</g>
		<g>
			<polygon class="st14" points="146.1,839.5 186.2,883.8 203.1,885.9 184.3,865.7 			"/>
		</g>
		<g>
			<polygon class="st14" points="234.5,846.1 223,904.7 209.6,915.3 215.2,888.2 			"/>
		</g>
		<g>
			<polygon class="st14" points="184.8,918.8 206.2,947 217.2,946.1 215.2,938.9 			"/>
		</g>
		<g>
			<g>
				<path class="st14" d="M244.4,1063.1c-0.3,0.1-34.8-145.6-47.9-202.2c-13.2-56.6-23.6-102.5-23.2-102.6
					c0.3-0.1,11.2,45.7,24.4,102.3C210.8,917.2,244.8,1063,244.4,1063.1z"/>
			</g>
		</g>
	</g>
	<g>
		<g>
			<path class="st14" d="M258.7,628.5c-1.1-1.4-10.7-50.3-9.6-54.2c1.1-3.9,12.3-56.7,12.3-56.7l1.8,76.8L258.7,628.5z"/>
		</g>
		<g>
			<path class="st14" d="M259.7,672.2c0,0,3.2-20.9,6.7-23.6c3.6-2.7,51.2-44.9,51.2-44.9l25.4-7.3l-21.1,12.7L259.7,672.2z"/>
		</g>
		<g>
			<polygon class="st14" points="234.3,625.5 254.7,708 261,714.3 261.3,692.1 			"/>
		</g>
		<g>
			<polygon class="st14" points="211.8,698.7 245.5,754.7 263.3,760.5 247.3,734.9 			"/>
		</g>
		<g>
			<polygon class="st14" points="305.3,724.3 280.8,784.8 264.1,793.4 275.9,765.5 			"/>
		</g>
		<g>
			<polygon class="st14" points="236.8,792 253.9,826.7 265.9,828.1 265.2,819.9 			"/>
		</g>
		<g>
			<g>
				<path class="st14" d="M278.5,1052.7c-0.4,0-14.8-256.9-17.1-320.4c-2.3-63.5-3.9-115-3.6-115c0.4,0,2.5,51.4,4.9,115
					C265,795.7,278.9,1052.6,278.5,1052.7z"/>
			</g>
		</g>
	</g>
	<g>
		<g>
			<path class="st14" d="M1732.1,743.9c-0.7-1.3-1.8-44.3-0.3-47.5c1.5-3.2,18.7-46.5,18.7-46.5l-9.6,65.6L1732.1,743.9z"/>
		</g>
		<g>
			<path class="st14" d="M1726.6,781.2c0,0,5.7-17.3,9.1-19.1c3.4-1.8,50-30.8,50-30.8l22.6-2.5l-19.8,7.8L1726.6,781.2z"/>
		</g>
		<g>
			<polygon class="st14" points="1711.7,737.9 1717.2,811 1721.7,817.2 1725.1,798.4 			"/>
		</g>
		<g>
			<polygon class="st14" points="1682.1,796.9 1702.7,849.4 1716.9,856.9 1707.1,832.8 			"/>
		</g>
		<g>
			<polygon class="st14" points="1757.9,832.1 1728.3,880.1 1712.9,885 1726.9,863 			"/>
		</g>
		<g>
			<polygon class="st14" points="1689.8,879.8 1699.4,911.8 1709.4,914.8 1710,907.7 			"/>
		</g>
		<g>
			<g>
				<path class="st14" d="M1687.7,1107.6c-0.3,0,24.5-220.6,31.7-275c7.2-54.4,13.3-98.4,13.6-98.3c0.3,0-5.3,44.1-12.4,98.5
					C1713.3,887.1,1688,1107.6,1687.7,1107.6z"/>
			</g>
		</g>
	</g>
</g>
<g id="Bg_Boy_1_">
	<g>
		<path class="st15" d="M642.7,707.7c-0.1-0.8,3.8-0.8,4.1-1.6c0.3-0.8-4.6-1.7-4.7-2.4c-0.1-1.3,5.5,0.7,5.5,0c0-0.6-5.7-3-4.9-3.9
			c0.8-0.9,5.7,3,5.9,2.4c0.3-0.7-4.8-3.3-4.5-4.8c0.2-0.8,8.2,5.6,9.3,5.3c1.1-0.3-0.4-4.5,0.5-4.9c0.9-0.4,2,7.8,2.6,8.2
			c0.5,0.4,11.9,7.6,16,9.4c0.8-1.3,6.1-8.3,6.8-9.6c2.1,2.1,5.7,1.3,7.9,3.2c-2.5,4.2-9.9,16.6-11.3,16.9
			c-4.1,1.1-19.4-12.2-21.9-14.7c-2.6-2.6-4.3-2.2-6.2-3.2C646,707.2,642.9,708.6,642.7,707.7z"/>
		<path class="st15" d="M676.8,708.3c0,0,5.7-15.5,9.3-19.1c3.6-3.6,11.3-3.6,13.6,0.4c2.3,4-12.6,22.7-12.6,22.7L676.8,708.3z"/>
		<path class="st15" d="M697,698c-5.8-0.1-5.2-11.4-5.2-11.4c-0.5,0-1,0.1-1.3,0.2c0.3-0.1,0.7-0.1,1.3-0.2c2.2-0.2,4-1.9,4.4-4.1
			c0.3-1.6,0.4-3.4,0.2-4.6c-0.4-2.8,7.2-1,7.2-1l1,6.6c0.3,1.9,1.7,3.5,3.6,3.9C708.3,687.3,702.9,698.1,697,698z"/>
		<path class="st15" d="M725.1,829.2c0,0,2.1,2.1,2.2,2.8c0,0.8,0.2,8.9-0.7,9.6c-0.9,0.8-3.4,1.3-2.6,2.1c0.6,0.6,5.3,0.5,8.5,0.3
			c0.9-0.1,2.1-7.4,2.4-8.4c0.5-1.6,1.8-5.1,1.3-6.2c-0.2-0.5-1.3-1.6-2.9-2.6c-1.6-1.1-3.2-3.4-3.2-3.4L725.1,829.2z"/>
		<path class="st15" d="M703.3,834c0,0,1.9,5.3,1.9,5.4c0.1,0.8,0.7,2.9,0.7,3.7c0,2.9-13-2.5-10.1-3.7c0.3-0.1,1.1-1,1.2-2
			c0.1-1.5-1.1-3.4-1.1-3.4L703.3,834z"/>
		<g>
			<path class="st15" d="M682.9,734.6c0,0-2.3,9.3-2.3,9.4c0,15.5-1.7,46-1.1,48.9c1.4,7.1,16.7,43.3,16.7,43.3l8.3-1l-5.7-38.8
				l7.9-26.7l-3.4-29.7L682.9,734.6z"/>
			<path class="st15" d="M722.6,741.5l-3.2,35l13.2,49.4c0,0-2.3,5.3-5.6,6.1l-25.7-37.5l-16-47.9l0.6-10.6L722.6,741.5z"/>
		</g>
		<path class="st15" d="M733.2,826.8c0,0-4.9,13.7-6.8,14.4c-0.5,0.2-2.9,0.6-3.4,1.7c-0.1,0.3,0,1.4,0,1.4h10.1c0,0,1.3-6,1.8-8.7
			c0,0,2.7-6.5,2.4-7.1C737,827.9,733.2,826.8,733.2,826.8z"/>
		<path class="st15" d="M706.6,844l-1.5-4.7c0,0-3.1,1.3-4.7,1.1c-1.6-0.2-4.6-1.1-4.6-1.1c-6.2,2.1-11.3,3.1-10.4,4.7l0,0H706.6z"
			/>
		<path class="st16" d="M696.5,677.8c-0.4-2.8,7.2-1,7.2-1l0.1,0.8c-0.2,0.5-0.5,1-0.8,1.4c-1.7,1.8-4.4,2.9-6.7,3
			C696.5,680.6,696.7,679,696.5,677.8z"/>
		<g>
			<path class="st15" d="M704.9,663c0.2-0.1,2,12.4-0.9,15.5c-2.9,3.1-9.3,3.2-11.3,0.7c-2.2-2.7-1.5-15,3-18.2
				C700.1,657.8,704.9,663,704.9,663z"/>
			<path class="st15" d="M697.4,654.9c3.4,0.7,5.7,2.8,6.5,3.7c1.6,0.2,3.7,1.1,5.9,4.7c2.7,4.5,0.7,9.5-2.4,11.9
				c-3.1,2.4-3.1,5.3-3.1,5.3l-0.5-1.5c-0.4-1.1-0.5-2.3-0.4-3.4c0.1-0.7,0.2-1.4,0.5-2.1c0.8-1.6-1.6-2.7-2.3-4.1
				c-0.5-1-0.5-3.4-1.3-5.2l-1-1.3c0,0-2.2-1.7-4.4-1.3C692.6,662.2,692.9,654,697.4,654.9z"/>
			<path class="st15" d="M701.7,671.5c0,1.4,0.6,2.5,1.4,2.5c0.8,0,1.4-1.1,1.5-2.5c0-1.4-0.6-2.5-1.4-2.5S701.7,670.1,701.7,671.5z
				"/>
		</g>
		<path class="st15" d="M696.9,675.5l-3.9-0.3c0,0,0,1.5,1.7,1.7C696.8,677.1,696.9,675.5,696.9,675.5z"/>
		<path class="st15" d="M687.3,691.5c1.4-3,3.1-4.7,3.1-4.7c0.3-0.1,0.8-0.2,1.5-0.2c0,0-0.7,11.3,5.2,11.4
			c5.8,0.1,11.3-10.6,11.3-10.6c1.5,0.3,3.1,0.7,4.1,1c0,0,5.1,1,6.5,8.6c1.4,7.6,4,36.4,4.2,42.3c0.1,4.3-6.5,8.1-15.7,9.8
			c-2.2,0.6-5,1-8.5,0.9c-0.9,0-1.7,0-2.6,0c-10.2-0.1-13.8-3-15.1-4.7c-0.2-0.1-0.4-0.2-0.6-0.3c0,0,0-0.3,0.1-0.7
			c0-0.1-0.1-0.2-0.1-0.2S673.1,715.8,687.3,691.5z"/>
		<path class="st15" d="M710.7,705.7c0,0,12.5,17.6,15.5,21.7c3,4.1,11.1,20.5,11.4,21.2c0.3,0.6-4.1,8.8-2.9,9
			c1.1,0.2,2-4.3,3.2-3.8c1.2,0.5,5.5,11,6.1,10.5c1.2-1-2.4-6.6-1.7-6.9c0.6-0.4,3.2,6.1,4.5,5.9c1.3-0.2-3-5.9-2.6-6.4
			c0.3-0.5,4.7,4.8,5.4,3.6c0.3-0.7-4-4.6-3.3-5.1c0.7-0.4,4.6,2.1,4.9,1.3c0.3-0.8-3.5-1.7-4.7-3.7c-1.3-2-3.2-2.9-4.3-6.7
			c-1.1-3.8-3.7-20-8.2-26.8c-4.6-6.8-13.9-19.6-13.9-19.6L710.7,705.7z"/>
		<path class="st15" d="M731,712.1l-12.2,8.2c0,0-6.9-10.3-10.6-13.9c-4.6-4.6,1.7-18.6,4.7-17.8C719.5,690.4,731,712.1,731,712.1z"
			/>
	</g>
</g>
<g id="Bg_Boy">
	<g>
		<path class="st15" d="M415.1,701.4l0.5,0.5c0.3,0.3,0.7,0.2,0.9,0l9.6-10.6c0.2-0.3,0.2-0.7-0.1-0.9l-0.5-0.5
			c-0.3-0.2-0.7-0.2-0.9,0l-9.6,10.6C414.8,700.8,414.8,701.2,415.1,701.4z"/>
		<path class="st15" d="M382.4,692.8c1.3-1,13.8,1.7,13.6,3.2c-0.1,1.5,4.8,13.4,4.8,13.4l11.8-5.3l0,0c0.1-0.4,1.3-4.2,1.3-4.8
			c0.1-0.7,2.1-2,3.1-1.8c1,0.2-0.8,1.4-0.9,1.6c-0.3,0.6,0.9,0.8,0.9,0.8s3.5-1.9,3.6-3.1c0.1-1.1,0.8-3.5,1.6-3
			c0.4,0.3,0.4,2,0.3,2.8c0.2-0.9,0.5-1.9,0.9-2.1c0.6-0.2,0.9,0.5,0.8,0.9c-0.1,0.4,1,4.9,0.7,5.3c-0.3,0.4-4.9,2.8-5.7,3.8
			c0,0-12.5,19.2-20,20.2c-1.1,0.1-4.5-5.8-7.8-10C388,710.7,378.4,696.1,382.4,692.8z"/>
		<path class="st15" d="M350.6,826.1c0,0-2.2,2.1-2.2,2.9c0,0.8-0.2,9.1,0.7,9.9c0.9,0.8,3.5,1.3,2.7,2.2c-0.6,0.7-5.5,0.5-8.7,0.3
			c-0.9-0.1-2.1-7.6-2.5-8.7c-0.5-1.6-1.9-5.2-1.4-6.4c0.2-0.5,1.4-1.7,3-2.7c1.7-1.1,3.3-3.6,3.3-3.6L350.6,826.1z"/>
		<path class="st15" d="M373.1,831c0,0-1.9,5.5-1.9,5.5c-0.1,0.9-0.7,3-0.7,3.8c0,3,13.4-2.5,10.4-3.9c-0.3-0.1-1.1-1.1-1.2-2.1
			c-0.1-1.6,1.1-3.5,1.1-3.5L373.1,831z"/>
		<g>
			<path class="st15" d="M394.1,728.5c0,0,1,9.9,1,10c0,16,3.2,47.2,2.6,50.2c-1.5,7.3-17.2,44.7-17.2,44.7l-8.5-1l11.1-44.7
				l-4.1-18l-5.8-35.6L394.1,728.5z"/>
			<path class="st15" d="M365.5,737.2l-1.6,9.4l-4.4,38.5l-16.6,37.6c0,0,2.3,5.5,5.8,6.2l26.5-38.6l16.5-49.4l-0.6-11L365.5,737.2z
				"/>
		</g>
		<path class="st15" d="M397.5,705l-11.8,1.2c0,0-0.5-9.7-0.5-14.3c0-5.6,0.5-12.9,1.2-12.7c1.9,0.4,4.5,1.5,6,3.6
			C397.5,690,397.5,705,397.5,705z"/>
		<path class="st15" d="M391.7,690.8c0.2,1.7,4.8,48.3,4.8,48.3c-21.5,10.4-33.4,1.9-33.4,1.9s0.7-32.7-0.1-37.2
			c-0.6-2.9-1.3-22.5,0.6-23.1c2.4-0.7,5.2-1.5,8.3-1.8c2.6-0.3,12.7-0.4,14.5,0.2C386.4,679.2,390.6,683.6,391.7,690.8z"/>
		<path class="st15" d="M342.2,823.6c0,0,5,14.1,7,14.8c0.5,0.2,3,0.6,3.5,1.7c0.1,0.3,0,1.4,0,1.4h-10.4c0,0-1.3-6.2-1.8-9
			c0,0-2.8-6.7-2.5-7.3C338.2,824.8,342.2,823.6,342.2,823.6z"/>
		<path class="st15" d="M369.6,841.3l1.5-4.9c0,0,3.2,1.4,4.8,1.1c1.6-0.2,4.8-1.1,4.8-1.1c6.4,2.1,11.7,3.2,10.7,4.9l0,0H369.6z"/>
		<g>
			<path class="st15" d="M399.1,724.8c0,0,0.2-0.2,0.3-0.2c-0.4-4.6-0.3-9,1.1-10.5c0-0.1-0.3-0.7-0.7-1.4
				c-1.7,1.3-2.4,4.7-2.1,10.2c0,0.4,0.1,0.7,0.2,1.1C398.5,724.6,398.9,724.9,399.1,724.8z"/>
		</g>
		<path class="st15" d="M341.8,739.6c0-0.1,0-0.2,0-0.3c0.3-3.2-0.8-29.7-0.3-30.8c0.4-1,16.1-18.9,16.1-18.9l5.9,8l-8.6,15.6
			c-0.3,1-5.7,18.2-5.7,18.2s-0.6,6.6-1,8.6c0.2,0.5-1.5-1.5-1.3-1.1c0.4,0.8,0.8,1.5,1.2,2c0.5,0.7,1.4,2.2,1.5,2.6
			c0.1,0.5,0.3,1.4,0.5,2c0.1,0.6,0.3,1.3,0.3,1.6c0,0.2,0.2,0.6,0.4,0.9c0.2,0.4-0.2,0.9-0.6,0.7c-0.4-0.1-0.7-0.7-0.9-1
			c-0.6-1-0.9-2.7-1-2.6c-0.1,0.1-0.6,3.1-0.7,3.4c-0.1,0.3-0.7,3.8-1,4.4c-0.3,0.6-0.8,0.5-0.9,0.1c-0.1-0.3,0.4-5.1,0.4-5.1
			s0.1-0.6-0.2-0.4c-0.3,0.2-0.7,4.6-0.9,5.2c-0.2,0.6-0.6,1-1,0.5c-0.4-0.6,0.3-5.3,0.3-5.3s0.1-0.6-0.2-0.5
			c-0.2,0.1-0.6,3.8-0.8,4.1c-0.2,0.3-0.7,0.4-0.9-0.1c-0.3-0.6,0.4-4.8,0.4-4.8s0-0.3-0.2-0.2c-0.2,0.1-0.6,3.3-1,3.6
			c-0.3,0.2-0.5,0-0.5,0c-0.6-0.4,0.3-3.4,0.3-4.9c0-1.5,0.7-3.2,0.5-4.9C341.9,740.1,341.8,739.8,341.8,739.6z"/>
		<path class="st15" d="M348.3,700.5l10.2,6.9c0,0,5.8-8.6,8.9-11.7c3.9-3.8-1.4-15.6-3.9-14.9C357.8,682.3,348.3,700.5,348.3,700.5
			z"/>
		<path class="st15" d="M372.6,668.9l-1.5,10.1c0,0,5.6,12,8.9,11c2.8-0.9,1.1-11.5,1.1-11.5s-1.5-5.7-1.1-8.6
			C380.5,667,372.6,668.9,372.6,668.9z"/>
		<path class="st15" d="M380,669.9c0.5-2.9-7.4-1-7.4-1l-0.1,0.8c0.2,0.6,0.5,1,0.9,1.4c1.8,1.9,4.5,3,6.9,3.1
			C380,672.7,379.9,671.1,380,669.9z"/>
		<g>
			<path class="st15" d="M371.4,654.6c-0.2-0.1-1.8,11.5,1.2,14.7c3,3.2,8.7,4.2,10.8,1.7c2.3-2.8,2.2-15.3-2.4-18.5
				C376.3,649.2,371.4,654.6,371.4,654.6z"/>
			<path class="st15" d="M379.1,646.3c-3.6,0.7-5.9,2.9-6.7,3.8c-1.6,0.2-3.8,1.1-6.1,4.8c-2.8,4.6-0.7,9.8,2.5,12.3
				c3.2,2.5,3.2,5.4,3.2,5.4l0.5-1.5c0.4-1.1,0.5-2.3,0.4-3.5c-0.1-0.7-0.2-1.5-0.5-2.1c-0.8-1.7,1.7-2.8,2.4-4.2
				c0.5-1.1,0.6-3.5,1.4-5.3l1-1.4c0,0,2.3-1.8,4.6-1.3C384,653.8,383.7,645.4,379.1,646.3z"/>
			<path class="st15" d="M374.7,663.4c0,1.4-0.6,2.6-1.4,2.6c-0.8,0-1.5-1.1-1.5-2.5c0-1.4,0.6-2.6,1.4-2.6
				C374,660.8,374.7,662,374.7,663.4z"/>
		</g>
		<path class="st15" d="M379.5,666.6l4.5-0.2c0,0,0,1.7-2,1.9C379.6,668.5,379.5,666.6,379.5,666.6z"/>
	</g>
	<path class="st15" d="M361.2,677.9c-3.5,0.3-6.3,3.2-7.6,6.4c-1.3,3.2-1.4,6.8-1.5,10.2c-0.3,13.2-0.5,26.3-0.8,39.5
		c0,1,0,2,0.4,2.9c0.5,1,1.6,1.6,2.6,2.1c5.6,2.5,12.1,3.1,18.1,1.5c1.1-0.3,2.2-0.7,2.9-1.6c0.5-0.7,0.7-1.7,0.8-2.6
		c1.1-8.9,2.3-17.9,1.6-26.9C377.3,702.2,372.2,676.9,361.2,677.9z"/>
</g>
<g id="Bg_G">
	<g>
		<path class="st15" d="M493.5,688.5c0,0,7.8,23.9,9.5,28.3c1.7,4.4,4.3,18.1,4.4,18.8c0.1,0.7-6.2,8.3-5.2,8.7
			c1,0.4,2.9-3.9,3.9-3.2c1,0.7,2.4,11.6,3.1,11.1c1.4-0.8-0.6-6.8,0.1-7c0.7-0.3,1.4,6.4,2.7,6.4c1.3,0-1.3-6.2-0.8-6.7
			c0.4-0.5,3.2,5.4,4.1,4.3c0.5-0.6-2.6-5.1-1.8-5.4c0.8-0.3,3.7,2.7,4.2,2c0.5-0.7-2.8-2.2-3.5-4.4s-2.3-3.3-2.3-7.2
			c-0.1-3.9,1.3-17.8-1.2-25.1c-2.5-7.3-8.1-23.5-8.1-23.5L493.5,688.5z"/>
		<path class="st15" d="M449.2,646.5c0.9-0.6,3,3.8,4,3.7c1,0-0.7-6.1,0.1-6.6c1.4-0.9,2.3,6.6,3,6.2c0.7-0.4,0.1-8.1,1.6-7.7
			c1.5,0.4-0.3,8,0.6,8c0.9-0.1,1-7.2,2.9-7.7c1-0.2-1.7,12.3-0.8,13.4c0.9,1.1,4.8-2.9,5.8-2.1c1,0.8-7.6,6.6-7.7,7.4
			c-0.1,0.8-1.9,17.6-1.7,23.1c1.9,0.1,12.7,2.3,14.5,2.3c-1.2,3.5,1.7,7.1,0.8,10.7c-6.1-0.5-24.1-1.9-25.3-3.2
			c-3.5-4,2.9-28.5,4.3-32.8c1.5-4.3,0-6.1,0.1-8.7C451.6,649.9,448.4,647.2,449.2,646.5z"/>
		<g>
			<path class="st15" d="M468.6,840c1.2-0.9,2.1-1.4,5.8-3.2c0.2-0.1,1.1-0.7,1.4-0.9c0.8-0.5,1.6-1.3,2.3-2c0.7-0.7,1-3.1,1.1-5
				c-0.4-4.2-6.5-72-7.8-79.3c-1.3-7.6,0.7-19.1,0.7-19.1l4.7-1.8l9,31.1l-0.7,23.7c0,0,2.1,6.8,2.4,10.9c0.3,4.1-3,37.2-3,37.2l0,0
				c0,1.2,0,2.3,0.2,2.9c0.2,1.2,1.6,3.8,1,5c-0.6,1.2-1.3,1.5-1.3,1.5l-16.1,0.3C467.3,841.1,467.9,840.5,468.6,840z"/>
			<path class="st15" d="M493.1,728c0,0,5.6,8.4,6.9,15.4c1.3,7-1,28.5,1.6,37.6c1.4,5,6.6,12.6,7.4,19c0.8,6.4,3.6,24.9,3.6,24.9h0
				c0.4,1.9,1.1,4.3,1.9,5.5c0.5,0.7,1.5,1.5,2.1,2.8c1,1.9,0.4,4.8-0.3,6.4c-0.4,0.8,0,0.8-0.8,1.1c-2.5,0.8-5.2-0.5-6.2-2.9
				c-0.6-1.3-1.1-3.1-1.2-5.4c-0.1-2.4-0.5-4.3-0.9-5.7l0,0l-17.9-43.9l-13-37.9l-3.3-19.5L493.1,728z"/>
			<path class="st15" d="M508.8,836.4c3.9,0.7,6.4-1.6,7.8-3.3c1,1.9,1.5,4.8,0.7,6.4c-0.6,1.4-2.5,1.4-4,1.4
				c-1.6,0.1-2.8-0.8-3.5-2.2C509.5,838.2,509.2,837.4,508.8,836.4z"/>
			<path class="st15" d="M475.8,835.9c4.3,1.1,7.4,0.4,9.2-0.4c0.5,1.3,1.1,2.9,0.7,3.8c-0.4,1.1-0.9,1.4-1.4,1.4
				c-3.9,0.1-14.3,0.2-17.2,0.3c-0.4,0-0.6-0.5-0.4-0.8C467.4,839.4,475.5,836.1,475.8,835.9z"/>
			<path class="st15" d="M494.8,829.2c-0.3,0-6-47.3-6.4-47.2c0,0,0,0-0.1,0c-0.3,0-0.7,0-1,0.1c0,0,0,0-0.1,0c-0.3,0-0.7,0-1,0
				c0,0,0,0-0.1,0c-0.3,0,4.7,46.2,2.8,47.1c-3.4,1.7-15.2-5.2-18.2-5.7c-1.5-15.5,0.7-71.3,0.1-74.5c-1.4-7.6,1.2-19.5,1.2-19.5
				l-0.2-2.8l0.7-1.8l25-5.8c0,0,1.6,16.9,3,23.9c1.4,7,14.5,67.6,17.2,76.7C517.8,819.6,501.7,828.8,494.8,829.2z"/>
		</g>
		<path class="st15" d="M461.1,683.1c0,0,15.6-1.6,20.2-0.1c4.6,1.5,6.6,7.5,5.4,11.8c-2.2,7.7-23.5,3.2-27.3,4.1L461.1,683.1z"/>
		<path class="st15" d="M488.6,677.8c0,0,7.7-0.5,10.7,2.7c3,3.2-2.1,28.6-2.6,32.7c-0.6,4.1,3.8,18.2,3.8,18.2s-23.8,0.5-29-2.8
			c0,0-0.9-29.8-0.4-32.7c0.6-2.9,5.6-14.6,6.7-15.7C478.9,679,488.6,677.8,488.6,677.8z"/>
		<path class="st15" d="M486,667.8c0,0,0,0.2,0.1,0.6c0.3,1.8,1.7,7.8,2.6,9.4c1.1,2-3.7,8.3-8.3,7.5c-1.4-0.2,1.2-5.8,1-6.4
			c-0.2-1.1-0.5-2.7-0.9-4.3c-0.2-0.9-0.4-1.8-0.5-2.6c-0.5-2.4-0.9-4.4-0.9-4.4L486,667.8z"/>
		<path class="st15" d="M481.4,652.6c0,0,3.2-0.4,5.3,2.2c2,2.6,4.2,10.5-0.8,14.8c-5.1,4.3-10-0.6-10.8-5.7
			C474.3,658.7,474,652.4,481.4,652.6z"/>
		<path class="st15" d="M473.5,663.8c0.6,1.1,1.6,1.8,2.3,1.4c0.6-0.4,0.7-1.6,0.1-2.7c-0.6-1.1-1.6-1.8-2.3-1.4
			C473,661.4,472.9,662.6,473.5,663.8z"/>
		<path class="st15" d="M481,651.8c0,0,4.3,7.5,7.4,7.9c3.1,0.3,3.5,4.3,3.5,4.3s-1.1-9.2-4.2-11C484.7,651.2,481,651.8,481,651.8z"
			/>
		<path class="st15" d="M487.6,661.5c-0.3,1.3,0.3,2.6,1.1,2.7c0.9,0.2,1.8-0.8,2-2.1c0.3-1.3-0.3-2.6-1.1-2.7
			C488.8,659.2,487.9,660.2,487.6,661.5z"/>
		<path class="st15" d="M483.4,665l-4.4,0.6c0,0,0.3,1.7,2.3,1.4C483.6,666.8,483.4,665,483.4,665z"/>
		<path class="st15" d="M499,707.3c0,0-8.7-13-9.5-17.8c-0.8-4.8,3.5-10.7,7.9-10.2c4.4,0.5,11.9,22.2,11.9,22.2L499,707.3z"/>
	</g>
	<path class="st15" d="M476.5,653.4c-2,1.8-3.3,4.3-4.2,6.9c-2.4,6.8-2.5,14.4-0.1,21.3c1.2,3.4,3.1,6.8,6.3,8.6
		c3.6,2,8.2,1.5,12.1,0c5.5-2.1,10.7-6.3,12-12.1c0.7-3.1,0.3-6.3-0.7-9.4C499.2,660.3,486,644.6,476.5,653.4z"/>
</g>
<g id="L_LEG">
	<path class="st17" d="M1447.2,801.6l-13.1,173.9l74.5,38.9c8.5-94.2,16.2-182,16.2-182L1447.2,801.6z"/>
	<path class="st18" d="M1524.7,832.5c0,0-20.4-13.2-19.2-12.1c1.2,1.1,3,194.1,3,194.1L1524.7,832.5z"/>
</g>
<g id="R_Leg">
	<path class="st17" d="M1602.7,818.6c-3.5-10.5-97.2,1.7-97.2,1.7c0,0.9,12.7,85.5,18.2,180l78.9-5.1
		C1598.6,911.6,1603.8,822.1,1602.7,818.6z"/>
</g>
<g id="Bag_1_">
	<g>
		<path d="M1557.5,769.3c7-44.7,8.8-95.7,4.5-152.3l41.1-6.1c14.7-9.5,32.4-1.5,41.6,13.4c8.8,14.4,10.9,33.2,11.3,50.8
			c0.6,25.1-1.9,49.3-7,71.9c-2.1,9.1-4.7,18.3-10,25.7c-7.4,10.4-19.4,16.3-30.9,18.4c-11.5,2-23.2,0.8-34.6-0.5
			c-5.6-0.6-11.9-1.7-14.9-6.6C1555.9,779.7,1556.7,774.2,1557.5,769.3z"/>
	</g>
</g>
<g id="L_Body_1_">
	<g>
		<path class="st17" d="M1452.9,734.4c0,0-6.9,65.7-6.1,71.8c0.8,6.1,57.6,41.5,57.6,41.5s97.4,9.4,99.2-0.9
			c3.9-23.9,0.2-52.6-13.4-84.3c-9.8-22.8-19.2-41.1-19.2-41.1L1452.9,734.4z"/>
		<path class="st19" d="M1500.7,741.8c1.9,64.6-1.3,58,9.3,106.1"/>
		<polyline class="st19" points="1492.3,747.5 1493.1,789.5 1499.9,800.8 		"/>
		<path class="st19" d="M1555.1,752.9c-3.9,1.4-8.3-0.4-11.7-2.6c-7.9-5.3-12.8-13.8-13-22.5"/>
		<path class="st19" d="M1464.9,723.2c-1.7,10.2-3.2,19.5-12.3,22.7"/>
		<path class="st19" d="M1553.3,728.8c13.4,23.1,17.3,84.3,17.3,110.4"/>
		<polygon class="st18" points="1571,721.3 1460.7,716.3 1457.8,726.3 1578.7,737.3 		"/>
	</g>
</g>
<g id="Hair_1_">
	<path class="st20" d="M1567.5,504.4c-2.4,4.4-1.1,10.4,2.9,13.4c2.8,2.1,6.9,3.2,7.9,6.5c1.4,4.8-5,8.5-5.3,13.4
		c-0.2,3.4,2.6,6.2,5.4,8.2c2.8,2,5.9,4,7.1,7.2c1.1,3.2-1.5,7.8-4.8,6.8c5.3,1.9,10.1,5.2,13.8,9.5
		c-35.9,17.1-81.5,11.8-112.5-13.2c3.8-2,7.7-4.1,10.6-7.3c2.9-3.2,4.5-7.8,3.1-11.9c-0.6-1.6-1.6-3-2-4.6
		c-1.4-4.8,3.3-10.2,8.3-9.5c-1-8.4,4.2-16.3,9.5-22.9c3.9-4.9,8.3-9.7,14.2-11.7c9.5-3.3,19.7,1.6,28.5,6.3"/>
</g>
<g id="L_Arm_1_">
	<g>
		<path class="st21" d="M1459,581.7c-23,28.3-33.2,60.9-33.2,60.9l60.7,17c0,0,12.5-40.3,5.6-55.1
			C1484.5,588.6,1480.2,567.6,1459,581.7z"/>
		<g class="st22">
			<path d="M1456.8,612c-2.6,5.3-3.4,8.3-4.8,14.2c-1.3,5.9-1.9,16.8-1.8,22.1l11.2,2.7C1459.7,637.8,1458.5,625.9,1456.8,612z"/>
		</g>
	</g>
	<path class="st15" d="M1455,649.5l-29.3-7.1c0,0-27.3,60.8-16.3,70.5c0,0,24.5,8.4,33.6-7.8c3.2-5.8,10.9-20.2,10.9-20.2l3.2-14.3
		L1455,649.5z"/>
</g>
<g id="Body_3_">
	<g>
		<path class="st2" d="M1453.9,698c1.3-14.7,6.6-37.8,4.6-47.8c-7.8-38.3-2.6-59.4-2.6-59.4c3-9.2,8.1-15,24.3-20.2
			c6.1-1,29.5-4.2,29.5-4.2l37.7-1.4c0,0,41.6,10.9,59.1,21.7l-14.1,67.1c-1.7,3.3-20.3,46-21.2,49c-4.7,15.4,20.3,52,19.1,59.8
			l-147.6,2L1453.9,698z"/>
		<path d="M1589.6,575.7c0,0-19.3,42.7-19.2,66.7c-1,35.4,13.1,81.9,13.1,81.9l-5.5,5.6c0,0-25.2-61.3-24.1-86.1
			c1.2-26.4,20.5-72.2,20.5-72.2S1580.9,565.4,1589.6,575.7z"/>
		<path d="M1486.6,569.7c0,0-32.6,37.7-27.3,97.8c0,0-15.4-68.9,9.3-91C1468.6,576.5,1477.7,565.5,1486.6,569.7z"/>
		<path class="st23" d="M1489.3,568.6l20.4-2.1l37.7-1.4l24.8,7.5c0,0-39.4,22.2-55.6,19.2C1503.4,589.4,1489.3,568.6,1489.3,568.6z
			"/>
	</g>
</g>
<g id="Neck_2_">
	<g>
		<polygon class="st23" points="1552,580.7 1508.5,583.8 1514.9,533.7 1556.4,537.7 		"/>
		<path class="st24" d="M1543.9,559.8c-19.2,11.6-33.3,7.3-33.3,7.3l4.3-33.3l41.1,13.7C1556,547.4,1554.1,553.6,1543.9,559.8z"/>
	</g>
</g>
<g id="R_Arm_2_">
	<g>
		<path class="st15" d="M1615,730.4c10.7-10.3,7.9-85.6,6.8-84.9l-45.3,14.2l0.8,36.4c0,0,6.3,22.5,11.8,27.3
			C1594.2,727.8,1615,730.4,1615,730.4z"/>
		<polygon class="st22" points="1576.5,656 1576.5,673.6 1623,656 1621.9,641.5 		"/>
		<path class="st2" d="M1606.6,586.8c13.5,5,18.2,63.7,18.2,63.7l-50.6,14.2c0,0-4.5-24.9,0.2-42.5
			C1578.6,606.7,1589.2,580.3,1606.6,586.8z"/>
		<path class="st19" d="M1574.2,664.7l50.6-14.2c0,0-4.2-56.6-18.2-63.7"/>
	</g>
</g>
<g id="Book">
	<g>
		<g>
			<polygon class="st25" points="1459.5,764.1 1568.9,764.3 1562.8,641 1453.9,639.7 			"/>
			<polygon class="st26" points="1459.5,764.1 1568.9,764.3 1562.8,641 1453.9,639.7 			"/>
		</g>
		<path class="st25" d="M1461.7,754.6l81.4,0.3c1.7,0,3-1.1,2.9-2.5l-4.2-87.3c-0.1-1.4-1.5-2.5-3.1-2.5l-84.2-0.9l4,90.4
			C1458.6,753.4,1460,754.6,1461.7,754.6z"/>
		<path class="st2" d="M1459,668.3l78.2,0.8c0.7,0,1.2-0.5,1.2-1l-0.1-2.7c0-0.6-0.6-1-1.3-1.1l-78.2-0.8c-0.7,0-1.3,0.5-1.2,1
			l0.1,2.7C1457.7,667.8,1458.3,668.3,1459,668.3z"/>
		<path class="st2" d="M1559.1,642.7c-1.3,0.1-103.5-1.2-103.5-1.2l0.1,1.9l103.5,1.2L1559.1,642.7z"/>
	</g>
</g>
<g id="R_Hand_2_">
	<g>
		<polygon class="st27" points="1507.4,702 1534.5,703.4 1523.5,726.8 1496.9,721.3 		"/>
		<path class="st15" d="M1577.3,696l-59.7,4c0,0-6.7,24.3-8.1,24.3c-1.2,0,54.4,17.2,82.9,15.2c14.3-1,18.6-5.7,24.4-11.1
			c0,0,0-11.1-14.2-23.3C1590.8,694.8,1577.3,696,1577.3,696z"/>
		<g>
			<g>
				<g>
					<g>
						<g>
							<g>
								<g>
									<path class="st23" d="M1511.2,705.5c0,0-1.7-8.5-8.3-12.8c-6.7-4.4-11-9.4-16.3-12.5c-5.4-3-2.4,4.2-0.1,7.7
										c2.3,3.5,4.9,7.5,1.8,8.5c-3.1,1-31.7-4.1-35.7-2.3c-4,1.8,0.5,3.9,0.5,3.9s-7-1-7.9,1.3c-0.2,0.6,0.4,2.4,3.5,3.3
										c7,2,21.9,5.6,21.9,5.6c-0.8-0.2-19.4-3.5-22.2-3.7c-3.7-0.2-5.4,1.3-5.2,3.2c0.2,2.7,23,7.3,23.9,8.1c0,0-13-3-15.4-0.6
										c-2.4,2.4,5.7,4.7,13.1,5.5c6.8,0.8,19.9,3.8,26.7,4c8.4,0.3,14-1.2,17.2-7.4C1512.1,711.2,1511.2,705.5,1511.2,705.5z"/>
								</g>
							</g>
						</g>
					</g>
				</g>
			</g>
			<path class="st28" d="M1454.1,698c5.6,1,11.1,2.1,16.6,3.5"/>
		</g>
		<path class="st22" d="M1538.3,730.7c-1.4-0.3-12.9-6.2-12-7.8c1-1.6,15.1-6.5,11.9-9.8c-3.3-3.3-16.9-3-25.4-1.3
			c-8.5,1.6-55.6-18-55.9-18c-0.4,0-11.1,1-9.3,1.6c1.8,0.6,78.9,32.9,78.9,32.9L1538.3,730.7z"/>
		<path class="st19" d="M1517.6,700c0,0,62.3-5.3,68.7-3.2"/>
	</g>
</g>
<g id="L_Hand_1_">
	<g>
		<path class="st27" d="M1486.6,713.1c0,0,23.6,8.9,23.4,10.1c-0.2,1.1-8,17.4-8,17.4l-20-8.2L1486.6,713.1z"/>
		<g>
			<g>
				<g>
					<g>
						<g>
							<g>
								<g>
									<path class="st23" d="M1498.1,722.7c0,0,5.6-6.3,13.3-6.8c7.7-0.5,13.7-2.7,19.4-2.8c5.8,0,0,4.5-3.6,6.3
										c-3.6,1.8-7.6,3.9-5.5,6.1c2.1,2.1,27.4,10.5,29.8,13.7c2.3,3.1-2.2,2.9-2.2,2.9s5.9,2.1,5.6,4.3c-0.1,0.6-1.4,1.8-4.3,1.2
										c-6.5-1.3-20-4.8-20-4.8c0.8,0.2,17.1,5.4,19.4,6.4c3,1.4,3.6,3.3,2.6,4.7c-1.4,2-21.7-3.7-22.8-3.5c0,0,11.9,3,12.6,6
										c0.8,2.9-6.7,1.4-13.1-1c-5.9-2.2-18.2-5.3-24-8.1c-7.3-3.5-11.4-7.2-11.1-13.7C1494.5,727,1498.1,722.7,1498.1,722.7z"/>
								</g>
							</g>
						</g>
					</g>
				</g>
			</g>
			<path class="st28" d="M1548.6,741.6c-4.8-1.6-9.8-3-14.9-4.3"/>
		</g>
		<path class="st15" d="M1453.9,684.9c0,0-20-6.1-31.2,1c-14.6,9.3-13.4,27-13.4,27c10.7,9.5,82,26.6,82,26.6l7.1-23.3L1453.9,684.9
			z"/>
	</g>
</g>
<g id="Face_1_">
	<g class="st29">
		
			<ellipse transform="matrix(7.756536e-02 -0.997 0.997 7.756536e-02 938.6779 2039.2085)" class="st30" cx="1571.3" cy="512.3" rx="9.2" ry="8.9"/>
		<path class="st30" d="M1585.2,523c-0.3,3.3-3,5.8-6.2,5.6c-3.2-0.2-5.5-3.1-5.2-6.5c0.3-3.3,3-5.8,6.2-5.6
			C1583.1,516.8,1585.5,519.7,1585.2,523z"/>
		<path class="st30" d="M1588.1,531.8c-0.2,2.8-2.5,4.9-5.2,4.7s-4.6-2.6-4.4-5.5c0.2-2.8,2.5-4.9,5.2-4.7
			C1586.3,526.6,1588.3,529,1588.1,531.8z"/>
		<path class="st30" d="M1589.8,539.3c-0.2,2.3-2.1,4-4.2,3.8s-3.8-2.2-3.6-4.4c0.2-2.3,2.1-4,4.2-3.8
			C1588.4,535,1590,537,1589.8,539.3z"/>
		<path class="st30" d="M1590.7,545.1c-0.2,1.9-1.8,3.4-3.6,3.2s-3.2-1.8-3-3.7c0.1-1.9,1.8-3.4,3.6-3.2
			C1589.5,541.5,1590.8,543.2,1590.7,545.1z"/>
		<path class="st30" d="M1587.8,547.1c0,0-3.1,7.4-1.2,7.6c1.9,0.1,6.5-1.4,6.6-2.7C1593.3,550.7,1589,547.9,1587.8,547.1z"/>
	</g>
	<g class="st29">
		<path class="st30" d="M1507.8,496.2c-1.8,4.8,0.6,10,5.2,11.7c4.6,1.7,9.8-0.8,11.5-5.6c1.8-4.8-0.6-10-5.2-11.7
			C1514.7,488.9,1509.5,491.4,1507.8,496.2z"/>
		<path class="st30" d="M1499.1,503.2c-1.1,3.1,0.3,6.6,3.3,7.6c3,1.1,6.3-0.6,7.5-3.7c1.1-3.1-0.3-6.6-3.3-7.6
			C1503.6,498.4,1500.3,500.1,1499.1,503.2z"/>
		<path class="st30" d="M1492.8,510.1c-1,2.6,0.3,5.5,2.8,6.4c2.5,0.9,5.3-0.5,6.3-3.1c1-2.6-0.3-5.5-2.8-6.4
			C1496.6,506,1493.8,507.4,1492.8,510.1z"/>
		<path class="st30" d="M1488.2,516.2c-0.8,2.1,0.2,4.5,2.3,5.2c2,0.7,4.3-0.4,5.1-2.5c0.8-2.1-0.2-4.5-2.3-5.2
			C1491.2,512.9,1489,514,1488.2,516.2z"/>
		<path class="st30" d="M1484.9,521.1c-0.7,1.8,0.2,3.8,1.9,4.4s3.7-0.3,4.3-2.1c0.7-1.8-0.2-3.8-1.9-4.4
			C1487.5,518.3,1485.6,519.3,1484.9,521.1z"/>
		<path class="st30" d="M1486.7,524.1c0,0-0.2,8-2,7.4c-1.8-0.7-5.3-4-4.9-5.2C1480.3,525.1,1485.3,524.3,1486.7,524.1z"/>
	</g>
	<path class="st23" d="M1564.9,534.6c-6.1,18.4-26,28.7-41.8,23.5c-15.7-5.2-21.3-24-15.2-42.4c6.1-18.4,23.8-29.1,39.6-23.8
		C1563.2,497,1571,516.2,1564.9,534.6z"/>
	<path class="st20" d="M1510.1,495.4c-1.2-2.1-1.4-4.7-0.5-7c0.8-1.9,2.3-3.5,3.9-5c1.3-1.2,2.5-2.5,3.9-3.5
		c1.3-0.9,2.7-1.8,4.2-2.1c3.6-0.7,7.3,1.7,8.7,5.1s0.6,7.4-1.4,10.4c-2,3-5.2,5.2-8.6,6.6C1517.2,501.3,1511.7,498.2,1510.1,495.4z
		"/>
	<path class="st20" d="M1559.1,495.4c1.1-2.2,2.8-4.3,5.2-5c2.6-0.8,5.5,0,7.6,1.6c2.2,1.6,3.7,4,4.9,6.4c1.1,2.3,2.1,4.7,2.7,7.2
		c0.3,1.3,0.6,2.6,0.4,4c-0.4,3.2-3.4,5.5-6.6,6c-3.1,0.5-6.4-0.5-9.2-1.9C1556.8,510,1555.8,502.4,1559.1,495.4z"/>
	<path class="st20" d="M1504.4,526.8c1,0.2,5.7-11.6,6.2-14.4c6.4,2.6,19.5,5.2,26,2.9c6.5-2.3,11.8-8.2,12.4-15
		c-1.4,3.1-1.3,6.8,0.3,9.8c1.6,3,4.6,5.2,8,5.7c-0.4,3.9-1.7,8.3-0.2,12c1.5,3.6,5.4,6.5,9.2,5.4c0.6-0.2,1.3-0.5,1.7-1
		c0.4-0.6,0.6-1.3,0.7-2c0.9-6,0.9-12.2-0.5-18c-1.4-5.9-4.2-11.5-8.5-15.8c-5.5-5.5-13.3-8.5-21-9.3c-6.9-0.7-14.2,0.2-19.9,4.1
		c-3.2,2.1-5.7,5-7.8,8.2C1505.3,507.5,1503.4,517.1,1504.4,526.8z"/>
	<path class="st31" d="M1523.4,521.2c-1.3,3.3-2.7,6.7-4.9,9.5c-0.4,0.6-0.9,1.2-1.1,1.9c-0.4,1.7,1,3.3,2.6,3.8
		c1.4,0.4,3.2,0,3.8-1.3"/>
	<g>
		<path class="st20" d="M1520,519.6c-0.3,0-0.6-0.2-0.8-0.5c-0.5-1.1-1.5-1.9-2.7-2.3c-1.1-0.4-2.4-0.2-3.5,0.4
			c-0.5,0.3-1,0.1-1.3-0.4c-0.3-0.5-0.1-1,0.4-1.3c1.5-0.8,3.3-1,5-0.5c1.7,0.5,3,1.7,3.8,3.3c0.2,0.5,0,1-0.4,1.3
			C1520.4,519.6,1520.2,519.6,1520,519.6z"/>
	</g>
	<g>
		<path class="st20" d="M1542.1,522.6c-0.3,0-0.6-0.2-0.8-0.5c-0.5-1.1-1.5-1.9-2.7-2.3c-1.1-0.4-2.4-0.2-3.5,0.4
			c-0.5,0.3-1,0.1-1.3-0.4c-0.3-0.5-0.1-1,0.4-1.3c1.5-0.8,3.3-1,5-0.5c1.7,0.5,3,1.7,3.8,3.3c0.2,0.5,0,1-0.4,1.3
			C1542.5,522.6,1542.3,522.6,1542.1,522.6z"/>
	</g>
	<g>
		<path class="st23" d="M1560.5,530.8c-1,5.6,2.3,9.8,7.4,9.3c5.1-0.5,10.2-5.4,11.2-11.1c1-5.6-2.3-9.8-7.4-9.3
			C1566.6,520.2,1561.6,525.2,1560.5,530.8z"/>
		<path class="st31" d="M1576.5,529.5c-0.1-2.3-2-4.1-4-4.2s-4,1-5.7,2.4c-1.6,1.4-3,3.2-4,5.2"/>
		<path class="st31" d="M1570.3,534.4c0.8-1.3,0.8-3.1,0.1-4.4c-0.7-1.3-2.2-1.9-3.5-1.6"/>
	</g>
</g>
<g id="R_Eyes_2_">
	<path class="st32" d="M1539.5,527.5c-0.5,1.4-1.9,2.1-3.3,1.6c-1.4-0.5-2.1-1.9-1.6-3.3c0.5-1.4,1.9-2.1,3.3-1.6
		C1539.2,524.7,1540,526.2,1539.5,527.5z"/>
</g>
<g id="L_Eyes_2_">
	<path class="st32" d="M1517.2,523.5c-0.5,1.4-1.9,2.1-3.3,1.6c-1.4-0.5-2.1-1.9-1.6-3.3c0.5-1.4,1.9-2.1,3.3-1.6
		C1517,520.7,1517.7,522.1,1517.2,523.5z"/>
</g>
<g id="G2_Mouth">
	<g>
		<path class="st24" d="M1529.7,541.1c-0.8,2-2.9,6.1-7.1,5.8c-3.1-0.2-3.3-4.5-3.6-6.7C1522.8,541.1,1526.2,542,1529.7,541.1z"/>
	</g>
</g>
<g id="R_Thigh">
	<g>
		<path class="st33" d="M1345,770.8l11.5,183.6c0,0-32.3,18.7-43.9,18.7c-21.6,0-36.7-12.2-36.7-12.2L1263.6,760
			C1263.6,760,1339.9,770.8,1345,770.8z"/>
	</g>
</g>
<g id="L_Thigh">
	<g>
		<path class="st33" d="M1188.7,751.3l-14.4,183.6c0,0,24.5,21.6,44.6,23.8c20.2,2.2,35.3-7.2,35.3-7.2l21.6-198L1188.7,751.3z"/>
	</g>
</g>
<g id="Body_2_">
	<g>
		<path class="st33" d="M1342.9,740.7l2.7,35.6l-78.5,31.9c0,0-80-20.8-80.2-23.9c-0.2-3.1,5.3-52.1,5.3-52.1L1342.9,740.7z"/>
		<path class="st34" d="M1342.9,746.2l2.6,38.2c0,0-70.9-11.8-96.1-13.6c-25.2-1.8-62.5-4-62.5-4l5.3-34.5l150.6,8.4V746.2z"/>
		<line class="st19" x1="1264.6" y1="766.7" x2="1266.4" y2="807"/>
		<path class="st19" d="M1271.8,759.5c0.3,8.1,0.3,23.1,0.6,31.2c-1.7,2.9-4,5.1-6,7.8"/>
		<polyline class="st19" points="1280,803.5 1267.4,808.1 1253.7,803.6 		"/>
	</g>
</g>
<g id="L_HAnd">
	<path class="st35" d="M1164,776.4c-0.4,9.2-0.8,18.4-1.2,27.6c-0.1,2.9-0.5,6.3-2.8,8c-2.9-3.5-4.6-8-4.9-12.5c-0.9,4-4.2,9-5.1,13
		c-0.5,2-1,4.2-2.7,5.4c-1.9,1.4-4.5,1.2-6.9,0.9c-2.9-0.4-6.1-1-7.7-3.4c-1-1.5-1.1-3.3-1.2-5.1c-0.2-5.5-0.1-10.9,0.3-16.4
		c0.1-1.3,0.2-2.6,0.6-3.8c0.6-1.8,1.7-3.4,2.8-4.9c5-7,9.6-14.4,13.8-22C1154,765.9,1160.3,772,1164,776.4z"/>
	<path class="st36" d="M1178.1,626.6c-0.8,2.5-14.6,39.6-16.1,48.3c-1.5,8.7-21.6,92.2-20.3,98.7c2.5,12.3,25.9,10.4,25.9,10.4
		s34.7-80.2,37.1-85.7c2.4-5.6,24.4-63.8,24.4-65.8C1229.1,630.4,1178.1,626.6,1178.1,626.6z"/>
</g>
<g id="l_Arm">
	<g>
		<path class="st15" d="M1218.8,541.4c0,0-9.7,1.7-17.7,11.5c-8,9.7-36.1,86.3-33.6,89.7c2.5,3.4,47.1,32.9,50.2,27.9
			c3-5,20.8-26.9,28.6-41.7C1254.1,614,1230.3,540.2,1218.8,541.4z"/>
		<path class="st19" d="M1171.5,636.2c3.4,6.4,23,17,29.8,19.4"/>
	</g>
</g>
<g id="R_Arm_1_">
	<g>
		<path class="st2" d="M1377,603.7c0,0,15.4,74.6,7.6,91.5c-5.1,11.1-34.4,15.2-36.3,11.7c-1.9-3.5-24.6-76.2-23.7-92.4
			C1325.5,598.3,1368.8,583.7,1377,603.7z"/>
		<polygon class="st22" points="1333.7,655.7 1335.8,664.6 1385.4,655.5 1383.2,639.7 		"/>
		<path class="st15" d="M1356,549.4c0,0,1-1.5,10.1,10.1c10.4,13.3,21,76.1,24.9,85.1c2.1,4.9-59.6,18.1-59.6,18.1
			s-10.4-54.8-9.1-79C1323.7,559.6,1356,549.4,1356,549.4z"/>
		<path class="st19" d="M1321.8,584.4c5.1,31.2,7.3,63.9,10.4,77.7c0,0,20-3.7,34.5-7.1c14.5-3.3,24.4-10.4,24.4-10.4"/>
		<path class="st19" d="M1325,577.7c5.7-11.6,16.4-20.5,28.8-24.2"/>
		<path class="st19" d="M1336.2,655.6c16.1-1.9,35.6-6.7,49.7-14.7"/>
	</g>
</g>
<g id="Neck_1_">
	<g>
		<polygon class="st35" points="1296.3,545.1 1255.4,544.2 1258.2,494.4 1295.7,495.3 		"/>
		<path class="st24" d="M1286.6,517.9c-16.5,11-30.2,5.3-30.2,5.3l2.5-30.5l36.2,5.2C1295.1,497.9,1295.4,512.1,1286.6,517.9z"/>
	</g>
</g>
<g id="Body_1_">
	<g>
		<path class="st2" d="M1191.6,739.9c0,0-5.3,15-3.9,23.7c0.8,4.6,86.6-0.3,111,4.7c26.7,5.5,36.8,7,36.8,7l2.2-5c0,0,0.7,4,0.7,7.2
			s9.4-0.2,9.4-0.2s-0.1-10.9-3-17.8c-2.8-6.9-32.3-25.1-53.2-26.4C1270.8,731.7,1191.6,739.9,1191.6,739.9z"/>
		<path class="st15" d="M1256.5,529.4c0,0,2.3,11.5,17.5,9c15.2-2.5,22.5-9.5,22.5-9.5s31.6,4,59.5,20.5c2.3,1.3,1.1,16.5-1.1,35
			c-3.5,29.1-9.7,66.5-9.3,70.8c0.7,8,1.2,118.8,0.7,111.4c0,0-15.3-21.5-114.3-19.6c-23.2,0.4-44.3,2.2-44.3,2.2s12.6-75,13.2-78.1
			c3.8-18.4-10.8-104,7.6-126.3C1210.4,542.6,1245.3,529.3,1256.5,529.4z"/>
		<path class="st19" d="M1197.3,739.7c21.8-5.6,44.8-4.2,67.2-1.9c26.7,2.7,58.4,2.5,79.4,19.1"/>
		<path class="st19" d="M1339,650.4c-0.9,31.3,1.8,64.3,0,95.6"/>
		<path class="st19" d="M1250.8,535.8c1.5,4.2,5.8,6.9,10,8.4c12.5,4.5,27.8,1.8,36.5-8.3"/>
		<path d="M1243.4,529.3c0,0-11.4,19.9-23.2,76c-11.8,56.1-22.9,95.5-22.9,95.5s3.7-105,7.4-130.5c3.7-25.5,8.1-29.3,13-33.2
			C1222.6,533.2,1243.4,529.3,1243.4,529.3z"/>
		<path class="st19" d="M1352.7,551.3c-6.9,3-12.7,8.3-16.5,14.7c-3.8,6.5-5.4,14.2-4.6,21.6"/>
		<path d="M1318,529.7c0,0-3.6,49,4.3,98.8s24.3,92.8,24.3,92.8s-7.4-94.3-8-121.1c-0.6-26.8,1-59.5,1-59.5L1318,529.7z"/>
	</g>
</g>
<g id="PAge">
	<path class="st25" d="M1327.5,728.9h-98.4V594.1h100.3c3.3,0,5.9,2.7,5.9,5.9V721C1335.4,725.3,1331.8,728.9,1327.5,728.9z"/>
	<path class="st2" d="M1326.4,607h-96.8v-10.1h96.8c2.4,0,4.3,1.9,4.3,4.3v1.5C1330.7,605.1,1328.8,607,1326.4,607z"/>
</g>
<g id="R_Hand">
	<g>
		<path class="st35" d="M1332.4,702.8c0,0-84.9-2.3-87.8-8.9c-2.8-6.7-0.1-16.7,1-18.4c1.1-1.7,69.4-1.5,80.7,10.7
			c11.2,12.2,36.6,3.1,32,7.5C1353.8,698,1332.4,702.8,1332.4,702.8z"/>
		<path class="st2" d="M1252.4,702.9c0,0,0.2-30.6,3.1-31.8c2.9-1.3,82.3-6.9,92.8-4.4c3.1,0.7,14.6,6.1,16.8,10.4
			c13,24.6,10.2,25.8-2.6,29.8c-5,1.6-14.5,3.6-23.3,3.9C1304.4,711.7,1252.4,702.9,1252.4,702.9z"/>
		<path class="st19" d="M1352.4,668.2c-19.2-6.2-98,3-98,3s-1.7,9.2-2.1,16.3c-0.5,7,0,15.3,0,15.3s66.5,8.4,88.9,7.3
			c25.9-1.3,36.3-7.8,36.3-7.8"/>
	</g>
</g>
<g id="R_Finger_1_">
	<path class="st35" d="M1252.8,675.2c-1.3-2.6-3-5.1-5.3-7c-4.7-3.7-11.3-4.4-15.6-8.5c-1.7,3.2-0.6,7.6,2.3,9.7
		c-2.5-0.1-5.9-1.7-8.4-1.2c-2,0.4-3.6,2.2-4,4.2c-0.4,2,0.1,4.1,1.2,5.8c-1.7,1.1-2.6,3.3-2.3,5.3c0.3,2,1.9,3.8,3.8,4.3
		c-1.5,1.2-2.2,3.3-1.7,5.1c0.5,1.8,2.1,3.3,4,3.6c-1.2,0.8-1.2,2.8-0.1,3.7c1.2,0.9,2.8,0.8,4.2,0.8c7.7-0.4,15.3-1.8,22.7-4.2
		c0.6-0.2,1.1-0.4,1.6-0.8c0.8-0.6,1-1.7,1.2-2.7c1.2-6,1.6-12.2,1.1-18.3C1256,674.9,1254.2,675.4,1252.8,675.2z"/>
</g>
<g id="face">
	<path class="st20" d="M1277.5,437.6c0.4-1.5,1.1-3.3,2.6-3.4c1.3-0.2,2.5,1.2,2.2,2.5c0.9-0.7,1.7-1.5,2.6-2.2
		c0.2,1.4,0.4,2.8,0.4,4.3c3.1-3.2,6.3-6.2,9.8-9.1c0.7-0.6,1.6-1.3,2.5-1.3c2-0.1,3.3,2.3,2.8,4.2c-0.5,1.9-2.1,3.3-3.6,4.5
		c2.4-1.6,5.1-2.8,7.9-3.5c-1.6,2.6-3.3,5.2-5.2,7.6c1.9-0.2,3.8-0.3,5.7-0.5c0.5,0,1-0.1,1.3,0.3c0.4,0.4,0.2,1.1,0,1.7
		c-0.4,1.1-0.8,2.3-1.3,3.4c1.2,0.3,2.4,0,3.7,0c1.2,0,2.6,0.6,2.8,1.8c0.1,0.9-0.5,1.7-1,2.3c-2,2.2-4.5,3.8-7.3,4.8
		c1.4,0.2,2,2,1.5,3.3c-0.5,1.3-1.6,2.2-2.8,3c-0.8,0.6-1.7,1.1-2.7,1.3c-2.5,0.4-4.7-1.7-6.5-3.5c-4.3-4.1-9.4-5.5-14-8.8
		C1274.9,447.6,1276.5,442,1277.5,437.6z"/>
	<path class="st35" d="M1274.8,517.6l-10.6,0.1c-13.8,0-16.2-10.8-18.1-25.9l-0.5-28c0-13.8,14.1-13.2,27.8-13.2h0
		c13.8,0,24.9,11.2,24.9,24.9l-1.7,18C1296.5,507.2,1288.5,517.6,1274.8,517.6z"/>
	<path class="st31" d="M1264.1,479.8c-0.8,6.2-4,9.1-4.3,10.5c-0.5,2.4,4.5,3.3,6.5,1.9"/>
	<path class="st37" d="M1251.1,472.2c1-0.6,2.3-0.8,3.5-0.6c1.2,0.3,2.2,1,2.9,2"/>
	<path class="st37" d="M1273,470.1c1-0.6,2.3-0.8,3.5-0.6c1.2,0.3,2.2,1,2.9,2"/>
	<path class="st38" d="M1282.3,490.6c0.2,1.5-1.8,3-4.5,3.4c-2.7,0.4-5-0.5-5.2-2c-0.2-1.5,1.8-3,4.5-3.4
		C1279.8,488.2,1282.1,489.1,1282.3,490.6z"/>
	<path class="st38" d="M1258.6,493.4c0,1.5-2,2.7-4.4,2.7s-4.4-1.2-4.4-2.7c0-1.5,2-2.7,4.4-2.7S1258.6,491.9,1258.6,493.4z"/>
	<path class="st20" d="M1251.4,459.7c1.9-1.2,4.3-1.6,6.5-1.9c6.3-0.9,12.7-1.3,19.1-1.2c2.3,0,4.7,0.1,6.6,1.3
		c3,1.7,4.3,5.3,4.7,8.7c0.4,3.4,0,6.8,0.7,10.2c0.9,0,1.8,0.1,2.7,0.1c0.7,6.3,1.9,12.5,3.6,18.6c2-0.1,3-2.4,3.5-4.4
		c2.5-10.3,3-21.2,1.2-31.7c-0.3-2-0.8-4-1.8-5.8c-1.6-2.8-4.4-4.6-7.4-5.8c-7.4-3-15.6-2.7-23.5-2.3c-5.6,0.3-11.2,0.5-16.4,2.7
		c-2.8,1.1-5.5,3-6.6,5.7c-0.6,1.6-0.7,3.3-0.6,5c0,4.4,0,9.8,1.5,13.9C1246.6,468,1246.8,462.6,1251.4,459.7z"/>
	<g>
		<g>
			
				<ellipse transform="matrix(0.9239 -0.3827 0.3827 0.9239 -89.432 515.6246)" class="st39" cx="1251.4" cy="482.6" rx="9.8" ry="9.8"/>
		</g>
		<g>
			<path class="st39" d="M1287.4,482.8c0,5.6-4.6,10.2-10.2,10.2c-5.6,0-10.2-4.6-10.2-10.2c0-5.6,4.6-10.2,10.2-10.2
				C1282.8,472.6,1287.4,477.1,1287.4,482.8z"/>
		</g>
		<line class="st39" x1="1260.1" y1="477.5" x2="1268.8" y2="477.5"/>
		<line class="st39" x1="1286.4" y1="478" x2="1297.9" y2="476.9"/>
	</g>
	<g>
		<path class="st35" d="M1289.2,483.2c-0.5,4.4,2.4,7.4,6.6,6.7c4.2-0.7,8-4.8,8.5-9.2c0.5-4.4-2.4-7.4-6.6-6.7
			C1293.5,474.7,1289.7,478.8,1289.2,483.2z"/>
		<path class="st31" d="M1302.1,481.3c-0.2-1.8-1.9-3-3.5-3c-1.7,0-3.2,1-4.5,2.2c-1.2,1.2-2.2,2.6-2.9,4.2"/>
		<path class="st31" d="M1297.4,485.4c0.6-1.1,0.5-2.5-0.2-3.4c-0.7-0.9-1.9-1.4-3-1"/>
	</g>
</g>
<g id="R_Eyes_1_">
	<path class="st32" d="M1275.4,480.9c-0.3,1.1-1.5,1.7-2.6,1.5c-1.1-0.3-1.8-1.4-1.5-2.5c0.3-1.1,1.5-1.7,2.6-1.5
		C1275,478.7,1275.7,479.8,1275.4,480.9z"/>
</g>
<g id="L_Eyes_1_">
	<path class="st32" d="M1256.1,481.1c-0.3,1.1-1.5,1.7-2.6,1.5c-1.1-0.3-1.8-1.4-1.5-2.5c0.3-1.1,1.5-1.7,2.6-1.5
		S1256.4,480,1256.1,481.1z"/>
</g>
<g id="B_MOuth">
	<path class="st24" d="M1260.9,500.1c3.8,1.1,8.3-1.5,9.3-5.4c0,0,2.1,7.9-2.3,9.3C1263.6,505.6,1260.9,500.1,1260.9,500.1z"/>
</g>
<g id="L_Body">
	<path class="st40" d="M928.2,1159.8c-5-0.5-15.9,43.6-15.5,44.1c3.3,4.4,52.7,34.2,62.8,34.2c24.3,0,43.8-9.5,25.4-19.8
		c-3.2-1.8-30.9-32.2-30.9-32.2l0-26.2L928.2,1159.8z"/>
	<path class="st40" d="M1034.8,1139.5c-5.1-0.5,0.5,68.4,0.8,68.9c4.7,10.5,105.4,10.8,104.9,5.7c-0.5-5.1-1.9-15.8-20.4-26.2
		c-3.2-1.8-27.2-8.6-27.2-8.6l-16.2-39.8H1034.8z"/>
	<g id="Layer_52">
		<g>
			<g>
				<path class="st14" d="M1096.1,981.1l33.7,180.1l-105.7,20.1c-3.6-28.8-8.9-88.6-13.9-150.3L1096.1,981.1z"/>
				<path class="st14" d="M1060.9,792.8l35.2,188.3l-85.9,49.9c-7.6-94.2-14.7-192.9-14.7-192.9L1060.9,792.8z"/>
				<path class="st18" d="M995.5,838.1c0,0,40.3-28.3,39.2-27.2c-1.1,1.1-24.5,220.1-24.5,220.1L995.5,838.1z"/>
				<g>
					<path class="st14" d="M1042.3,722.7c0,0,20.3,70.1,19.6,76.2c-0.7,6.1-46.5,46.2-46.5,46.2s-100.7,18.4-102.2,8
						c-3.6-23.9,3.2-67.5,11.1-100.6c6.1-25.3,8.1-33.4,8.1-33.4L1042.3,722.7z"/>
					<path class="st19" d="M1015.8,728.6c8.7,63.9,10.4,56.9,8.7,106"/>
					<polyline class="st19" points="1024.2,732.8 1030.2,774.2 1025.9,786.5 					"/>
					<path class="st19" d="M957,759.4c3.5,1.4,7.5-0.4,10.5-2.6c7.1-5.3,11.6-13.8,11.7-22.5"/>
					<path class="st19" d="M1038.4,729.6c1.5,10.2,2.9,19.5,11.1,22.7"/>
					<path class="st19" d="M958.7,735.3c-12.1,23.1-15.6,84.3-15.6,110.4"/>
					<polygon class="st18" points="942.7,727.8 1042.3,722.7 1044.9,732.8 935.7,743.8 					"/>
				</g>
				<path class="st14" d="M895,1177.3c1.2-36.2,4.1-108.1,7-176.8l103.7,7.6c-3.6,68.5-5.5,137.8-1.6,173.2L895,1177.3z"/>
				<path class="st14" d="M914.1,825.1c3.1-10.5,104.6-5.3,104.6-5.3c0,0.9-8,93.9-12.9,188.3l-103.7-7.6
					C905.6,916.9,913,828.6,914.1,825.1z"/>
			</g>
			<line class="st19" x1="944" y1="825.6" x2="917.1" y2="1171.8"/>
			<line class="st19" x1="996.8" y1="1171.6" x2="898" y2="1167.7"/>
			<line class="st19" x1="1126.2" y1="1153.7" x2="1027.9" y2="1171.8"/>
			<line class="st19" x1="1018.7" y1="911.9" x2="1051.6" y2="1171.8"/>
		</g>
	</g>
</g>
<g id="R_Arm">
	<g>
		<path class="st41" d="M1066.6,599.2l15.9,79.6c0,0-1,29.5-6.3,31.5c-5.3,2-16.1,1.2-18.1,1.2c-2,0-26-108.3-26-108.3L1066.6,599.2
			z"/>
		<path class="st15" d="M1028.8,582.6c0,0,11.8-7.4,28,3c10.6,6.8,34.8,90.1,34.8,90.1l-56,7.6
			C1035.6,683.3,1018.2,590.2,1028.8,582.6z"/>
	</g>
</g>
<g id="R_Hand_1_">
	<path class="st41" d="M1071.5,681.8c0,0,50.4-72.3,52.4-74.9s16.6,12.6,16.6,15.3c0,6-31.2,98.1-43.1,102.1
		c-11.9,4-32.5,0-37.8-10.6C1054.3,703,1071.5,681.8,1071.5,681.8z"/>
</g>
<g id="R_Finger">
	<g>
		<path class="st41" d="M1116.8,623.6c1.3-7.3,4.6-15.4,8.1-21.9c2.9-5.3,15.6-12.4,24.6-19.2c1.1,4.4-1.3,9.4-5.5,11.3
			c3.7-1.3,7.5-2.8,10.9-4.7c2.2-1.2,3.2-3.7,4.6-5.8c1.7-2.5,3.5-5,5.5-7.3c0.6-0.7,1.3-1.5,2.3-1.7c0.9-0.2,2.1,0.4,2.1,1.4
			c1.1-1.4,3.4-1.7,4.8-0.5c1.4,1.2,1.5,3.5,0.3,4.8c1.1,0.8,1.6,2.3,1.6,3.7c0,1.4-0.5,2.7-0.9,4.1c-0.5,1.4-0.9,2.7-1.5,4
			c-0.3,0.7-0.7,1.4-1.1,2.1c-0.7,1.3-1.6,2.5-2.4,3.7c-3,4.3-5.8,8.9-8.9,13c-1.9,2.5-4.9,4.3-7.4,6.1c-7.1,4.9-14.7,9.2-21.7,14.3
			"/>
		<path class="st42" d="M1130.5,607.1c4.4-0.8,8.1-4.4,8.9-8.8"/>
		<path class="st42" d="M1151.6,596.4c1.9-1.2,7.2-5.4,8.7-6.9c1.8-1.8,4.5-8,8.9-13.1"/>
		<path class="st42" d="M1172.7,591.1c-3.1-1.9-6.7,2.5-8.3,4.5c-2.2,2.7-4.2,5.7-7,7.8"/>
		<path class="st42" d="M1175.8,581.8c-0.3-2.1-2.7-1.5-3.9-0.3c-6,6-9.5,13.7-17.2,17.7"/>
		<path class="st42" d="M1150.1,596.3c2.3,2.6,4.2,5.4,5.9,8.4"/>
		<path class="st42" d="M1146.2,608.1c-6.2,1.8-11.5,6.7-13.7,12.8"/>
	</g>
</g>
<g id="Bag">
	<g>
		<path class="st43" d="M871.1,700.8c0.2-21.9,1-43.7,4.5-65.4c2.5-15.5,6.2-31.1,14.5-44.5c8.3-13.4,21.8-24.2,37.4-26
			c19-2.2,37.1,9.1,51,22.3c35.4,33.5,55.3,82.6,53.3,131.3c-0.3,8.3-1.3,16.7-4.7,24.3c-6.1,14.1-19.7,23.9-34.3,28.8
			c-14.6,4.8-30.2,5.3-45.6,5.2c-13-0.1-26.2-0.6-38.5-4.6c-11.6-3.8-26.6-13.3-33.6-23.7C867.1,736.6,871,714.3,871.1,700.8z"/>
		<g>
			<g>
				<path class="st43" d="M957.7,579.7c2.9-16.5-13.4-26.1-28.1-24.5c-7,0.7-14.1,3.5-18.4,9.4c-4.1,5.6-4.6,13.5-0.5,19.3
					c2.2,3.1,7.4,0.1,5.2-3c-7.5-10.7,5.9-19.1,15.3-19.7c9.9-0.6,22.9,5.2,20.8,17.1C951.3,581.9,957.1,583.5,957.7,579.7
					L957.7,579.7z"/>
			</g>
		</g>
	</g>
</g>
<g id="Body">
	<path class="st41" d="M990.7,571.8c-3.1,0-47.5,12.5-46.8,15c0.6,2.5,51.2,22.5,61.2,24.4c10,1.9,28.1-24.4,28.7-26.9
		C1034.4,581.8,990.7,571.8,990.7,571.8z"/>
	<g>
		<path class="st15" d="M948.8,583.9c0,0,38.2,17.3,50.6,21.1c12.5,3.7,31-23,31-23l13.9,5.5c0,0,1.4,13,6.2,21.2
			c6.6,11.2,12.5,21.1,9.2,33.8c-1.7,6.4-6.3,12.2-9.2,22.4c-6.9,24.5-9,57.8-9,57.8l-106.2,2.6c0,0-3.5-86.7-5.4-102.3
			c-1.2-10.3,2.2-29.3,8.1-37.5C941.3,581.3,948.8,583.9,948.8,583.9z"/>
		<path class="st44" d="M1055.4,617.4c5.2,8.8,7.1,18.9,3.3,28.4c-2,4.9-3.2,9.4-5.9,13.9c-2.6,4.5-4.3,16.6-5.5,21.7
			c-3.5,14.8-3.8,26.5-5.3,41.6"/>
		<path class="st44" d="M946.9,583.3c0,0,47.6,20.6,55.9,21.9c8.2,1.3,27.7-23.2,27.7-23.2"/>
		<path class="st44" d="M946.9,589.4c0,0,47.6,20.6,55.9,21.9c8.2,1.3,27.7-23.2,27.7-23.2"/>
	</g>
	<path class="st43" d="M935.7,579.7c0,0,12.9,55.4,11.5,84.2c-1.5,28.8-11.5,79.8-11.5,79.8s30.1-52.3,30.9-88.1
		c0.7-35.8-4.2-80-15.5-78.9C939.9,577.8,935.7,579.7,935.7,579.7z"/>
</g>
<g id="L_Arm">
	<g>
		<path class="st41" d="M943.5,635.3c-0.6,1.9-10.4,70.2-11.1,74.8s-9,24.6-15.3,27c-6.2,2.3-15.3,2.4-19.5-4.4
			c-4.2-6.8,0.3-98.2,6.5-107.5C910.3,615.9,943.5,635.3,943.5,635.3z"/>
		<path class="st15" d="M940.1,584c0,0-19.9-7.5-31.5,4.9c-9.9,10.6-20.3,60.3-21.1,63.2c-0.9,2.9-4.6,24.7-4.6,24.7l57.5,12
			c0,0,5.1-37.9,6.7-68.8C948,603,942.4,585.8,940.1,584z"/>
		<polyline class="st44" points="882.4,676.3 941,689.5 946.4,631.4 		"/>
	</g>
</g>
<g id="L_Hand">
	<g>
		<path class="st41" d="M926.8,702.3c0,0,75.1,28.5,78.3,31c3.2,2.5-1.9,19.2-6.6,19.8c-4.8,0.7-72.1,2.5-94.8-14.8
			c-9.6-7.3-10.5-25-3-31.7C908.1,700,926.8,702.3,926.8,702.3z"/>
		<g>
			<path class="st41" d="M986.9,734.2c7-2.4,15.7-3.5,23-3.6c6-0.1,18.5,7.5,28.8,12.1c-3.3,3.1-8.9,3.4-12.5,0.8
				c2.9,2.6,6.1,5.1,9.5,7.2c2.2,1.4,4.8,1,7.3,1.2c3,0.2,6,0.6,9,1.2c0.9,0.2,1.9,0.4,2.6,1.1c0.6,0.7,0.7,2-0.2,2.5
				c1.8,0.3,3.1,2.2,2.8,3.9c-0.3,1.8-2.3,3-4,2.6c-0.2,1.4-1.2,2.5-2.5,3.2c-1.2,0.7-2.6,0.9-4,1.2c-1.4,0.3-2.8,0.5-4.2,0.6
				c-0.8,0.1-1.6,0.1-2.4,0.1c-1.5,0-2.9-0.2-4.4-0.3c-5.2-0.5-10.5-0.7-15.7-1.4c-3.1-0.4-6.2-2.1-8.9-3.5
				c-7.8-3.8-15.2-8.3-23-11.9"/>
		</g>
	</g>
</g>
<g id="Hair">
	<path class="st43" d="M990.8,483c-8.2-1.9-16.9-0.8-23.4,4.5c-3.6,2.9-6.3,6.7-8.8,10.6c-7,10.7-13.1,22.8-12.1,35.5
		c1.6,19.5,21.2,33.2,39.9,31.9c9.3-0.6,18.4-4.7,24.4-11.8c14.3-16.8,11.8-45.1-3-60.9C1003.4,488,997.3,484.5,990.8,483z"/>
	<path class="st43" d="M1028,501.9c6.4,8.7,9.6,19.5,9.7,30.2c0.1,12.5-5.3,26.5-17,30.9c-9,3.3-19.3,0-26.8-5.8
		c-11.1-8.6-17.5-23-16-37c1.3-13.1,9.4-23.6,19.9-30.9C1008.7,481.9,1021.4,492.9,1028,501.9z"/>
</g>
<g id="Neck">
	<g>
		<polygon class="st41" points="976.6,591.2 1012,590.3 1009.5,541.3 977.1,542.1 		"/>
		<path class="st24" d="M985.2,559.3c14.2,10.8,25.8,9.9,25.8,9.9l-1.4-27.9l-32.9,5.4C976.7,546.7,977.6,553.5,985.2,559.3z"/>
	</g>
</g>
<g id="Face">
	<path class="st45" d="M1162,628.4"/>
	<path class="st19" d="M1211.8,596.9c-5.2,34.5-10.5,69-15.7,103.5"/>
	<path class="st46" d="M982.8,483c-4.2,0.1-8.5,1.6-11.3,4.8c-1.1,1.3-2,2.9-3.3,4.1c-2.1,2-5.2,2.6-8,3.4c-4,1.1-8,2.6-11.1,5.5
		c-3,2.9-4.8,7.3-3.5,11.3c0.2,0.7,0.6,1.5,0.5,2.2c-0.1,1.2-1,2.1-1.8,3c-4.5,4.4-8.9,9.1-11.4,14.8c-2.5,5.7-2.9,12.8,0.5,18
		c0.5,0.8,1.1,1.6,1.3,2.5c0.4,1.9-1.1,3.6-2.4,5c-3.4,3.9-6.1,8.9-5.7,14.1c0.4,5.2,4.8,10.3,10,10c-6,6.8-4.3,18.6,2.8,24.3
		c7.1,5.7,18.1,5.3,25.5-0.1c0.8-0.5,1.6-1.2,2.5-0.9c0.7,0.2,1.1,0.9,1.4,1.4c4,6.7,10,12.6,17.6,14.3c7.6,1.7,16.7-2.3,18.8-9.8
		c6.7,1,13.7,0.1,19.9-2.6c3.8-1.7,7.6-4.6,7.9-8.7c3.8,4,10.7,3.4,15.2,0.1c6.9-5.2,8.4-16.2,3.1-23c-0.9-1.2-2.1-2.3-2.5-3.8
		c-0.8-2.4,0.4-5,1.2-7.4c1.9-5.5,1.3-12.5-3.3-16c-1.4-1-3.1-1.7-4-3.2c-0.9-1.5-0.8-3.3-0.7-5c0.3-4,0.7-8.1-0.1-12
		c-0.8-4-3-7.8-6.6-9.6c-0.8-0.4-1.6-0.7-2.2-1.3c-1.5-1.6-0.5-4.2-0.1-6.4c0.9-4.9-2.9-10.1-7.8-10.9c-1.3-0.2-2.7-0.2-3.5-1.2
		c-0.3-0.4-0.5-0.9-0.7-1.4c-2-5.1-7.5-8.6-13-8.2c0.8-0.1-3.2-4.4-3.7-4.7c-2.3-1.2-4.5-0.7-7-0.6
		C992.4,485.3,987.9,482.9,982.8,483z"/>
	<path class="st47" d="M1042.3,579.2c0,24.2-26.6,41.6-51.2,41.6c-24.6,0-51.2-15.9-51.2-40.1c0-24.2,10.1-84.4,47.9-87.8
		C1021.7,489.9,1042.3,555,1042.3,579.2z"/>
	<g class="st29">
		<path class="st48" d="M953.5,509c0,5.4,3.8,9.8,8.4,9.8c4.6,0,8.3-4.4,8.3-9.9c0-5.4-3.8-9.8-8.4-9.8
			C957.1,499.1,953.4,503.5,953.5,509z"/>
		<path class="st48" d="M948.1,519.2c0,3.6,2.4,6.4,5.4,6.4c3,0,5.3-2.9,5.3-6.5c0-3.6-2.4-6.4-5.4-6.4
			C950.5,512.7,948.1,515.6,948.1,519.2z"/>
		<path class="st48" d="M944.9,528.3c0,3,2,5.4,4.5,5.4c2.5,0,4.5-2.5,4.5-5.4c0-3-2-5.4-4.5-5.4
			C946.9,522.9,944.8,525.3,944.9,528.3z"/>
		<path class="st48" d="M942.8,536.1c0,2.4,1.7,4.4,3.7,4.4c2,0,3.7-2,3.6-4.4c0-2.4-1.7-4.4-3.7-4.4
			C944.4,531.7,942.8,533.7,942.8,536.1z"/>
		<path class="st48" d="M941.5,542.2c0,2.1,1.4,3.7,3.1,3.7c1.7,0,3.1-1.7,3.1-3.7c0-2.1-1.4-3.7-3.1-3.7
			C942.9,538.5,941.5,540.2,941.5,542.2z"/>
		<path class="st48" d="M944.1,544.6c0,0,2.4,8.1,0.6,8.1c-1.8,0-6-2-6-3.4C938.7,548,942.9,545.3,944.1,544.6z"/>
	</g>
	<g class="st29">
		<path class="st48" d="M1022.2,496.8c1.3,5.2-1.2,10.6-5.6,12.1c-4.4,1.4-9.1-1.6-10.4-6.8c-1.3-5.2,1.2-10.6,5.6-12.1
			C1016.2,488.5,1020.8,491.6,1022.2,496.8z"/>
		<path class="st48" d="M1029.8,504.9c0.9,3.4-0.8,6.9-3.6,7.9c-2.8,0.9-5.8-1.1-6.7-4.5c-0.9-3.4,0.8-6.9,3.6-7.9
			C1025.9,499.4,1028.9,501.5,1029.8,504.9z"/>
		<path class="st48" d="M1035.1,512.6c0.7,2.9-0.6,5.8-3,6.6c-2.4,0.8-4.9-0.9-5.6-3.8c-0.7-2.9,0.6-5.8,3-6.6
			C1031.9,508.1,1034.4,509.8,1035.1,512.6z"/>
		<path class="st48" d="M1039.1,519.5c0.6,2.3-0.5,4.7-2.5,5.4c-1.9,0.6-4-0.8-4.6-3.1c-0.6-2.3,0.5-4.7,2.5-5.4
			C1036.4,515.8,1038.5,517.1,1039.1,519.5z"/>
		<path class="st48" d="M1041.7,524.9c0.5,2-0.4,4-2.1,4.6c-1.6,0.5-3.4-0.6-3.9-2.6c-0.5-2,0.4-4,2.1-4.6
			C1039.5,521.8,1041.3,523,1041.7,524.9z"/>
		<path class="st48" d="M1039.9,528c0,0-0.3,8.6,1.4,8c1.7-0.6,5.2-3.8,4.9-5.1C1045.8,529.6,1041.2,528.3,1039.9,528z"/>
	</g>
	<path class="st41" d="M966.3,533.1c4.4,20,22.3,32.5,37.4,28.2c15-4.3,21.5-23.8,17.1-43.9c-4.4-20-20.2-32.7-35.3-28.4
		C970.4,493.3,961.8,513.1,966.3,533.1z"/>
	<path class="st47" d="M1023.2,529.5c-0.9,0.2-4.5-12.7-4.8-15.8c-6.1,2.2-18.5,4-24.4,1.1c-5.9-2.9-10.5-9.6-10.5-16.9
		c1.1,3.4,0.8,7.4-0.9,10.4c-1.7,3.1-4.7,5.2-7.9,5.5c0.1,4.2,1,9-0.6,12.7c-1.6,3.7-5.5,6.5-8.9,5c-0.6-0.3-1.2-0.6-1.5-1.2
		c-0.4-0.6-0.5-1.5-0.5-2.2c-0.4-6.4,0-13,1.7-19.1c1.7-6.2,4.7-11.9,9-16.1c5.5-5.4,12.9-8,20.2-8.2c6.5-0.2,13.2,1.3,18.3,5.9
		c2.8,2.5,5,5.8,6.8,9.3C1023.7,509,1024.9,519.2,1023.2,529.5z"/>
	<path class="st31" d="M1005.8,522.1c1,3.6,2.1,7.3,3.9,10.5c0.4,0.7,0.8,1.3,0.9,2.1c0.3,1.8-1.2,3.5-2.7,3.8
		c-1.3,0.3-3-0.2-3.5-1.7"/>
	<g>
		<path d="M1016.3,517.7c-2.8-0.4-4.9,0.4-7.1,1.9C1009,516,1014.7,514.3,1016.3,517.7L1016.3,517.7z"/>
	</g>
	<g>
		<path d="M995.5,519.2c-2.8-0.4-4.9,0.4-7.1,1.9C988.2,517.4,993.8,515.8,995.5,519.2L995.5,519.2z"/>
	</g>
	<path class="st43" d="M966.2,529.5c-4.1-10.1-2.8-22.2,3.7-30.9c6.5-8.7,18.3-13.2,28.8-10.6c10.5,2.6,19,12.6,19.1,23.5
		c-2.3-4.6-5.5-8.7-9.3-12.1c-0.8,6.3-5.8,11.8-11.9,13.3c3.5-3.2,5.8-7.7,6.2-12.4c-4.3,5.5-9.2,11.4-16,12.8
		c2.6-2.9,4.4-6.5,5-10.4c-13,4.2-22.8,16.6-23.9,30.1c-2.5-1.8-3.6-5.4-2.4-8.2"/>
	<g>
		<path class="st41" d="M974.6,535.6c0.5,5-2.3,8.4-6.3,7.7c-3.9-0.8-7.5-5.4-8-10.4c-0.5-5,2.3-8.4,6.3-7.7
			C970.5,525.9,974.1,530.6,974.6,535.6z"/>
		<path class="st31" d="M962.4,533.5c0.2-2,1.8-3.4,3.3-3.5c1.6,0,3.1,1.1,4.2,2.5c1.2,1.3,2.1,3,2.8,4.8"/>
		<path class="st31" d="M966.9,538.1c-0.5-1.2-0.5-2.8,0.2-3.9s1.8-1.6,2.8-1.2"/>
	</g>
</g>
<g id="R_Eyes">
	<path class="st32" d="M1011.5,525c0.3,1.5,1.7,2.4,2.9,2c1.3-0.4,2.1-1.9,1.7-3.4c-0.3-1.5-1.7-2.4-2.9-2
		C1011.9,522,1011.1,523.5,1011.5,525z"/>
</g>
<g id="L_Eyes">
	<path class="st32" d="M990.4,527.6c0.3,1.5,1.7,2.4,2.9,2c1.3-0.4,2.1-1.9,1.7-3.4c-0.3-1.5-1.7-2.4-2.9-2
		C990.9,524.6,990.1,526.1,990.4,527.6z"/>
</g>
<g id="G1_Mouth">
	<g>
		<path class="st24" d="M1000.7,541.7c0.5,2.2,1.8,6.7,5.1,6.7c2.4,0,3.2-2.6,3.5-5C1006.4,544.1,1003.3,543.5,1000.7,541.7z"/>
	</g>
</g>
<g id="Shape">
	<rect x="-38.9" y="941.3" class="st2" width="2383.8" height="601.7"/>
</g>
</svg>
