<?xml version="1.0" encoding="utf-8"?>
<!-- Generator: Adobe Illustrator 24.1.3, SVG Export Plug-In . SVG Version: 6.00 Build 0)  -->
<svg version="1.1" xmlns="http://www.w3.org/2000/svg" xmlns:xlink="http://www.w3.org/1999/xlink" x="0px" y="0px"
	 viewBox="0 0 1920 1080" style="enable-background:new 0 0 1920 1080;" xml:space="preserve">
<style type="text/css">
	.st0{fill:#E2F7F4;}
	.st1{fill:#CBEFEB;}
	.st2{fill:#A6D1CA;}
	.st3{fill:none;stroke:#BDE5DD;stroke-width:5;stroke-linecap:round;stroke-linejoin:round;stroke-miterlimit:10;}
	.st4{fill:#FFFFFF;stroke:#BDE5DD;stroke-width:5;stroke-linecap:round;stroke-linejoin:round;stroke-miterlimit:10;}
	.st5{fill:none;stroke:#A5D6CD;stroke-width:5;stroke-linecap:round;stroke-linejoin:round;stroke-miterlimit:10;}
	.st6{fill:#FFFFFF;stroke:#BDE5DD;stroke-width:3;stroke-miterlimit:10;}
	.st7{fill:none;stroke:#94DDD8;stroke-width:14;stroke-linecap:round;stroke-linejoin:round;stroke-miterlimit:10;}
	.st8{fill:#FFA476;}
	.st9{fill:#A55735;}
	.st10{fill:#547293;}
	.st11{fill:#7194B5;}
	.st12{fill:#3B5975;}
	.st13{fill:#1A2E35;}
	.st14{fill:#FFFFFF;stroke:#58738C;stroke-miterlimit:10;}
	.st15{fill:#FF6700;}
	.st16{fill:none;stroke:#1A2E35;stroke-miterlimit:10;}
	.st17{fill:#435968;}
	.st18{fill:#E7E7E7;}
	.st19{fill:#E5CCC7;}
	.st20{opacity:0.58;fill:#AA8987;}
	.st21{fill:#FFFFFF;}
	.st22{fill:none;stroke:#0E1A2B;stroke-linecap:round;stroke-linejoin:round;stroke-miterlimit:10;}
	.st23{fill:none;stroke:#D17046;stroke-width:3;stroke-linecap:round;stroke-linejoin:round;stroke-miterlimit:10;}
	.st24{fill:#0E1B2D;}
	.st25{fill:#FF9578;}
	.st26{fill:none;stroke:#264066;stroke-width:2;stroke-linecap:round;stroke-linejoin:round;stroke-miterlimit:10;}
	.st27{fill:#D67756;}
	.st28{fill:#3C5C7A;}
	.st29{fill:#007CFF;}
	.st30{fill:#1F2C38;}
	.st31{fill:#BC4C2E;}
	.st32{fill:#1D3F54;}
	.st33{fill:none;stroke:#E2816F;stroke-linecap:round;stroke-linejoin:round;stroke-miterlimit:10;}
	.st34{fill:#506272;}
	.st35{fill:none;stroke:#D17046;stroke-width:1.5;stroke-linecap:round;stroke-linejoin:round;stroke-miterlimit:10;}
	.st36{fill:#FF9878;}
	.st37{fill:#A03824;}
	.st38{fill:#281C1C;}
</style>
<g id="BG">
	<g>
		<g>
			<g>
				<g>
					<path class="st0" d="M323.3,389.2c23-79.9,77.9-151.5,157.4-201.9c55.5-35.2,128.8-64.1,212.2-53.3
						c186.2,24,384.1,238.3,591.7,204.8c207.6-33.5,374.6,103.2,347.2,319.2c-27.5,215.9-483.5,384.2-888,290.7
						C396.2,868.4,259.2,611.6,323.3,389.2z"/>
				</g>
			</g>
		</g>
		<path class="st0" d="M1047.2,243c31.3,21.8,66.8,36.5,102.5,49.7c19.6,7.2,39.6,14.1,60.4,17c51.4,7.1,105.7-12.2,141-50.2
			c17.8-19.1,31.3-46.8,21.4-71.1c-3.4-8.3-9.2-15.3-15.4-21.8c-41.8-43.2-101.9-63.1-160.7-75.7c-59.9-12.8-123.5-19.3-181.4,0.7
			c-13.5,4.7-27,11.1-35.7,22.4C946.4,156.3,1016.6,221.7,1047.2,243z"/>
	</g>
</g>
<g id="BG_1">
	<g>
		<g>
			<path class="st1" d="M289.7,916.7c-22.9-44-30.7-85.1-29.9-134.7c21.8,10,120.8,17.8,158,75.3c19,29.4,34.5,101.6,19.7,133.2
				C361.8,994.6,314,963.5,289.7,916.7z"/>
		</g>
		<path class="st1" d="M1681.5,854c1.6,1.6,6.5,71.1-56.1,117.9c-25.4,18.9-79.5,22.4-127.3,18.8c-0.1-36.5,24.5-86.5,52.5-113.5
			C1579.1,849.5,1680.1,852.7,1681.5,854z"/>
		<path class="st1" d="M370.6,763.8c-4.4-31.4-0.2-64.4,14.3-92.7c30.8,8.3,52.5,36.4,64.8,65.9c12.1,29.1,36.1,107-8.5,120.2
			C393.5,871.3,375.1,796.5,370.6,763.8z"/>
		<path class="st1" d="M1617.3,843.3c10.5-11.9,32.2-60,33.2-72c-28.8-5.4-71.6-7.1-94.2,18c-17.5,19.5-30.3,86.5-30.3,86.5
			S1584.6,880.5,1617.3,843.3z"/>
		<path class="st1" d="M397.5,991.4c9-100.1,11-180.3,54.7-260.5c22.7-41.6,124.2-193.8,224.4-106.2c14.9,13,21.9,38.2,33.1,57.1
			c11.2,18.9,27.1,35.5,44.6,33.7c27.8-3,41.6-47,53.3-82.4c11.1-33.6,25.7-65.9,46.7-88.5c21-22.5,49.1-34.2,74.5-23.9
			c45,18.1,68.9,95.9,114.7,109.1c19.8,5.7,40.3-2,59.1-12.3c30.2-16.7,58.5-40.6,89.9-52c31.4-11.4,68.4-7.7,91.3,24.5
			c22.9,32.3,31.2,90.6,63.1,99.5c27.5,7.6,59.8-13.6,87.7-12.1c22.5,1.2,66.9,27.2,77.5,43.2c53.3,80.5,60.8,162.2,49.6,271.8"/>
	</g>
</g>
<g id="BG_2">
	<path class="st2" d="M1555.4,993.7c12.9-13.6,24-31.3,30.7-44.7c10.9-21.7,5.9-52.4-15.7-63.7c-14.8-7.8-32.9-4.8-48.9,0.1
		c-12.8,4-33.4,16.9-55.1,32.5c3.4-7.4,5.8-15.2,7-23.3c2.6-18.3-1.9-38-14.5-51.5c-17-18.2-46-21.9-69.7-13.9
		c-15.8,5.3-29.6,15-41.7,26.6c24.1-105-2.9-194.8-71-166.1c-24,10.1-39.3,33.5-48.7,63.1c-22.3-53.2-57.8-77.8-94.4-43.4
		c-23.8,22.3-30.7,58-28.9,96.5c-11.2-14.7-24.7-27.6-42.1-33.3c-30.1-9.9-62.8,5-86.4,26.6c-2.1-71.9-38.1-122.4-94.6-103.7
		c-32.6,10.8-55.4,44.2-71.4,84.9c-30.2-93.6-92.1-155.2-156.1-102.5c-12.7,10.4-21.1,25.2-26.2,42.6c-9.6-14.2-22-25.4-38.6-28.4
		c-23.6-4.3-46.8,10.5-62.6,28.4c-19.1,21.6-31.4,48.4-37.1,76.7c-18.1-13.7-38.5-23.8-61-26.4c-37-4.2-78.7,19.1-83.7,55.7
		c-3.4,25.1-2.1,67.3,13.4,87.4c25.2,32.7,32.7,57.3,75,81L1555.4,993.7z"/>
</g>
<g id="leaf_8_">
	<g>
		<path class="st3" d="M234.8,855.1c39.8-12.3,102.1,28,85.1,99.6"/>
		<g>
			
				<ellipse transform="matrix(0.7974 -0.6035 0.6035 0.7974 -471.1161 309.9394)" class="st4" cx="226" cy="856.5" rx="24.3" ry="24.3"/>
		</g>
	</g>
</g>
<g id="leaf_7_">
	<g>
		<path class="st3" d="M405.4,785.4c31.8,8.5,28.4,124.3-13.1,165"/>
		<g>
			
				<ellipse transform="matrix(0.9987 -5.188057e-02 5.188057e-02 0.9987 -39.9772 22.3305)" class="st4" cx="410.1" cy="781.2" rx="19.2" ry="19.2"/>
		</g>
	</g>
</g>
<g id="leaf_6_">
	<g>
		<g>
			<path class="st4" d="M1400.6,992.6h44.9c0,0,106.9-156.4,21.2-166C1338.3,812.2,1400.6,992.6,1400.6,992.6z"/>
			<path class="st4" d="M1425.1,992.6c0,0-12-70.6,29.6-141.2"/>
		</g>
		<path class="st4" d="M1422.6,947.5c-10.9-10.8-17.3-26.1-17-41.1"/>
		<path class="st4" d="M1435.2,891.3c-4.6-15.7-5.9-32.2-4-48.2"/>
		<path class="st4" d="M1429.2,920.7c11.2,1.6,22.7-1.6,31.1-8.6"/>
		<path class="st4" d="M1446.4,867.6c7.5,1.1,13.4-0.1,18.8-4.9"/>
	</g>
</g>
<g id="leaf_5_">
	<g>
		<path class="st4" d="M355.4,991.4c0,0-32.8-98.7-71.1-99.6c-38.2-1-11.5,65.1,41.1,99.6H355.4z"/>
		<path class="st4" d="M341.6,991.4c0,0-39.9-65.1-53.1-74.5"/>
	</g>
</g>
<g id="leaf_4_">
	<g>
		<g>
			<path class="st4" d="M406.9,991.4h-44.2c0,0-113.3-155-29.4-164.6C458.8,812.4,406.9,991.4,406.9,991.4z"/>
			<path class="st4" d="M382.8,991.4c0,0,8.2-70-36.5-140"/>
		</g>
		<path class="st4" d="M382.9,946.6c10.2-10.7,15.6-25.9,14.6-40.7"/>
		<path class="st4" d="M367.6,890.9c3.7-15.6,4.2-32,1.5-47.8"/>
		<path class="st4" d="M375.1,920.1c-10.9,1.6-22.4-1.5-31-8.5"/>
		<path class="st4" d="M355.3,867.4c-7.3,1.1-13.1-0.1-18.8-4.9"/>
	</g>
</g>
<g id="leaf_3_">
	<g>
		<g>
			<path class="st4" d="M395.3,992.7c0,0,21.4-116.7,66.7-117.9c45.2-1.1,19.6,70.2-42.6,111.1L395.3,992.7z"/>
			<path class="st4" d="M402.4,992.7c0,0,43.4-100.2,66.5-104.7"/>
		</g>
		<path class="st4" d="M428.6,938.7c-2.8-6.4-3.8-13.6-2.9-20.6"/>
		<path class="st4" d="M455,897.9c-1.7-5-1.9-8.9-1-14.1"/>
		<path class="st4" d="M413.5,971.6c6.4-4.3,13.6-7.4,21.1-9"/>
		<path class="st4" d="M441.4,919.4c5.1-2.6,10.9-4,16.7-3.9"/>
	</g>
</g>
<g id="leaf_2_">
	<g>
		<path class="st5" d="M1523.9,752.4c20.4,25.2,18.7,80.6,6.9,110.9c-11.8,30.3-27.8,53-52.1,74.5"/>
		
			<ellipse transform="matrix(0.4847 -0.8747 0.8747 0.4847 121.4446 1720.2979)" class="st4" cx="1520.7" cy="757.1" rx="19.1" ry="19.1"/>
	</g>
</g>
<g id="leaf_1_">
	<g>
		<path class="st3" d="M1495.9,989.1c43.4-10.8,80.9-43.4,97.6-84.9"/>
		
			<ellipse transform="matrix(0.7071 -0.7071 0.7071 0.7071 -167.1866 1393.8407)" class="st4" cx="1598.9" cy="898.7" rx="19.1" ry="19.1"/>
	</g>
</g>
<g id="leaf">
	<g>
		<path class="st4" d="M1450.2,994.1c0,0,36.2-107.7,78.4-108.7c42.2-1,12.7,71.1-45.3,108.7H1450.2z"/>
		<path class="st4" d="M1465.5,994.1c0,0,44-71,58.6-81.3"/>
	</g>
</g>
<g id="star_5_">
	<g>
		<g>
			<path class="st6" d="M498.8,249.2l16.1,9.9c0.7,0.4,1.2,1.2,1.2,2.1l1,18.9c0.1,2.1,2.6,3.2,4.3,1.8l14.4-12.2
				c0.6-0.6,1.5-0.7,2.4-0.5l18.2,4.9c2.1,0.6,3.9-1.5,3.1-3.5l-7.2-17.5c-0.3-0.8-0.2-1.7,0.2-2.4l10.3-15.8c1.2-1.8-0.2-4.2-2.4-4
				l-18.8,1.4c-0.8,0.1-1.7-0.3-2.2-1l-11.9-14.7c-1.3-1.7-4-1.1-4.5,1l-4.5,18.3c-0.2,0.8-0.8,1.5-1.6,1.8l-17.6,6.7
				C497.2,245.4,497,248.1,498.8,249.2z"/>
		</g>
	</g>
</g>
<g id="star_4_">
	<g>
		<g>
			<path class="st6" d="M370.7,431.1l13.1,8.1c0.6,0.4,1,1,1,1.7l0.8,15.4c0.1,1.8,2.1,2.6,3.5,1.5l11.8-10c0.5-0.5,1.3-0.6,1.9-0.4
				l14.9,4c1.7,0.5,3.2-1.2,2.5-2.9l-5.9-14.3c-0.3-0.6-0.2-1.4,0.2-2l8.4-12.9c1-1.5-0.2-3.4-1.9-3.3l-15.4,1.2
				c-0.7,0.1-1.4-0.2-1.8-0.8l-9.7-12c-1.1-1.4-3.3-0.9-3.7,0.8l-3.6,15c-0.2,0.7-0.7,1.2-1.3,1.5l-14.4,5.5
				C369.4,427.9,369.2,430.2,370.7,431.1z"/>
		</g>
	</g>
</g>
<g id="star_3_">
	<g>
		<g>
			<path class="st6" d="M440.2,595.5l22,13.6c1,0.6,1.6,1.7,1.7,2.8l1.3,25.8c0.1,2.9,3.6,4.4,5.8,2.5l19.7-16.8
				c0.9-0.8,2.1-1,3.2-0.7l25,6.7c2.8,0.8,5.3-2.1,4.2-4.8l-9.8-23.9c-0.4-1.1-0.3-2.3,0.3-3.3l14.1-21.7c1.6-2.5-0.3-5.7-3.2-5.5
				l-25.8,2c-1.2,0.1-2.3-0.4-3-1.3l-16.2-20.1c-1.8-2.3-5.5-1.5-6.2,1.4l-6.1,25.1c-0.3,1.1-1.1,2.1-2.2,2.5l-24.2,9.2
				C438,590.2,437.7,593.9,440.2,595.5z"/>
		</g>
	</g>
</g>
<g id="star_1_">
	<g>
		<g>
			<path class="st6" d="M1511.9,563.5l22,13.6c1,0.6,1.6,1.7,1.7,2.8l1.3,25.8c0.1,2.9,3.6,4.4,5.8,2.5l19.7-16.8
				c0.9-0.8,2.1-1,3.2-0.7l25,6.7c2.8,0.8,5.3-2.1,4.2-4.8l-9.8-23.9c-0.4-1.1-0.3-2.3,0.3-3.3l14.1-21.7c1.6-2.5-0.3-5.7-3.2-5.5
				l-25.8,2c-1.2,0.1-2.3-0.4-3-1.3l-16.2-20.1c-1.8-2.3-5.5-1.5-6.2,1.4l-6.1,25.1c-0.3,1.1-1.1,2.1-2.2,2.5l-24.2,9.2
				C1509.8,558.3,1509.4,562,1511.9,563.5z"/>
		</g>
	</g>
</g>
<g id="star_2_">
	<g>
		<g>
			<path class="st6" d="M1401,434.6l12.8,7.9c0.6,0.4,0.9,1,1,1.7l0.8,15c0.1,1.7,2.1,2.6,3.4,1.5l11.5-9.7c0.5-0.4,1.2-0.6,1.9-0.4
				l14.5,3.9c1.7,0.4,3.1-1.2,2.4-2.8l-5.7-13.9c-0.3-0.6-0.2-1.3,0.2-1.9l8.2-12.6c0.9-1.4-0.2-3.3-1.9-3.2l-15,1.1
				c-0.7,0.1-1.3-0.2-1.8-0.8l-9.5-11.7c-1.1-1.3-3.2-0.9-3.6,0.8l-3.6,14.6c-0.2,0.7-0.6,1.2-1.3,1.4l-14.1,5.4
				C1399.8,431.5,1399.6,433.7,1401,434.6z"/>
		</g>
	</g>
</g>
<g id="star">
	<g>
		<g>
			<path class="st6" d="M1181.1,188.9l17.6,10.8c0.8,0.5,1.3,1.3,1.3,2.3l1,20.6c0.1,2.3,2.9,3.5,4.7,2l15.7-13.4
				c0.7-0.6,1.7-0.8,2.6-0.6l19.9,5.4c2.3,0.6,4.3-1.6,3.4-3.8l-7.9-19.1c-0.4-0.9-0.3-1.8,0.2-2.6l11.3-17.3c1.3-2-0.2-4.6-2.6-4.4
				l-20.6,1.6c-0.9,0.1-1.8-0.3-2.4-1l-13-16.1c-1.5-1.8-4.4-1.2-5,1.1l-4.9,20.1c-0.2,0.9-0.9,1.6-1.7,2l-19.3,7.4
				C1179.3,184.7,1179.1,187.6,1181.1,188.9z"/>
		</g>
	</g>
</g>
<g id="Line">
	<line class="st7" x1="239.5" y1="995.3" x2="1705.8" y2="995.3"/>
</g>
<g id="B_R_leg">
	<g id="Layer_71">
		<g>
			<polygon class="st8" points="674,958.8 695.6,963.3 722.3,909.9 690.2,892.8 			"/>
			<polygon class="st9" points="722.2,909.9 708.5,937.4 679.8,934.7 691,894.9 			"/>
			<path class="st10" d="M793.5,712.1C780.2,781.4,723,946.6,723,946.6l-46.6-5.2c0,0,25.4-169.4,32.8-227.2"/>
			<polygon class="st11" points="723.6,957.8 668.7,948.8 672.6,933.2 728.6,939.4 			"/>
			<path class="st12" d="M778.6,764.6c-4.6,14.5-7.9,33.8-12.7,47.7c-16.3,6.2-55.2,11.6-72.2,3.8c4.1-16.1,11.2-70.2,14.7-85.7
				L778.6,764.6z"/>
		</g>
	</g>
	<g id="shoe_3_">
		<path class="st13" d="M704.3,958.5l-33.2-3.2c-1.3-0.1-12,33.6-8.9,33.9c13,1.4,19.2,1.9,35.4,3.6c10,1,35.8,3.5,49.6,4.9
			c6.4,0.6,2-14.5-8.5-23.8C727.2,963.6,705.3,958.6,704.3,958.5z"/>
	</g>
</g>
<g id="B_L_leg">
	<g id="Layer_69">
		<g>
			<polygon class="st8" points="496.2,801.1 503.6,824 559.1,807.7 546.5,773.1 			"/>
			<polygon class="st9" points="544.7,774.3 557.3,808.8 528.1,817.3 520,788.2 			"/>
			<path class="st10" d="M716.5,732.8c-57.9,45.2-187.1,95.5-187.1,95.5L515.1,787c0,0,106-78,146.7-106.8"/>
			<polygon class="st11" points="520,835.7 504.9,784.5 519,777.1 537.6,830 			"/>
			<path class="st12" d="M642.3,690.7l39.4,65.7c-13.5,7.8-17.9,10.1-31.8,17c-20.6-4.7-58.2-24.7-62.7-38.3
				C598.3,727.4,632.2,697.7,642.3,690.7z"/>
		</g>
	</g>
	<g id="shoe_2_">
		<path class="st13" d="M510.1,824.7l-5.4-32.9c0-1.2-34.8,0.2-34.9,6.8c-0.2,11.6,5.1,67.3,11.1,77.9c1.2,2.2,9.1-3,13.4-8.1
			C503.5,857.4,510.1,826.4,510.1,824.7z"/>
	</g>
</g>
<g id="B_R_arm">
	<path class="st13" d="M796.8,359.8c13.9,0.4,74.6,6.2,79.3,14.2c4.4,7.5,25.9,55.8,13.3,67.2c-0.4,0.6-86.5,23.3-89.8,23.4
		C782.6,465.4,778.4,359.2,796.8,359.8z"/>
</g>
<g id="B_R_hand">
	<g id="Layer_68">
		<g>
			<path class="st8" d="M892.5,321.6c0.2-21.3-8.2-55.4-8.2-55.4l-21.6-1c0,0-2.3,26.2-6.1,47.7L892.5,321.6z"/>
			<path class="st13" d="M858.6,292.9l75.6,29.6c0.3,2.9-13.3,77.8-41.2,116c-16,21.9-47.3-38.4-52.1-49.2
				C835.9,378.1,858.9,294.4,858.6,292.9z"/>
		</g>
	</g>
	<g id="Degree_hand">
		<g>
			<g>
				<g>
					<polygon class="st14" points="934.3,300.3 945.8,277 879.8,248.3 816.1,214.8 804.6,238.1 870.6,266.8 					"/>
				</g>
				<path class="st15" d="M855.3,264.4l6,1.9c0.5,0.2,1.1-0.1,1.3-0.7l8.5-24.4c0.2-0.6-0.1-1.2-0.6-1.3l-6-1.9
					c-0.5-0.2-1.1,0.1-1.3,0.7l-8.4,24.4C854.4,263.6,854.7,264.2,855.3,264.4z"/>
				<path class="st15" d="M876.4,273.5l5,3.8c0.5,0.3,1.1,0.2,1.5-0.3l15.4-20.8c0.4-0.5,0.3-1.2-0.2-1.5l-5-3.8
					c-0.5-0.3-23.2-11.9-23.5-11.4l-12.4,24.8C856.9,264.8,875.9,273.2,876.4,273.5z"/>
			</g>
			<g>
				<path class="st8" d="M900.5,248.7c-0.9,3.4-2.4,6.8-3.9,8.7c-1.9,2.6-5.2,4.3-8.1,3.4c-2.9-1-4.1-5.4-1.7-7.5
					c-0.6,2.6-4.5,3.2-6.8,2.1c-2.3-1.1-2.9-4.7-1.1-6.8c0.4,2.4-4.3,4.3-6.3,2.9c-2-1.3-2.1-4.5-0.8-6.7c-2.2,2.3-7.1,1.7-8-1.2
					c-1.6-5,0.5-19.1,8.1-18.1c2.1,0.3,3.9,2.6,3.3,4.6c0.9-1.7,3.1-2.7,4.9-2.2c1.9,0.5,3.2,2.5,3.1,4.4c-0.1,0.6-0.2,1.4,0.2,1.9
					c0.7,0.8,2,0.1,2.9-0.4c2.1-1.2,4.9-1,6.8,0.5c1.9,1.4,2.9,4.1,2.4,6.4c1.8-0.2,3.7-0.5,5.5-0.7
					C901.7,242.3,901.4,245.5,900.5,248.7z"/>
				<path class="st16" d="M870.4,243.5c1.1-2.2,2.3-4.4,3.4-6.6"/>
				<path class="st16" d="M878.3,250.1c1.4-3.1,2.8-6.1,4.2-9.2"/>
				<path class="st16" d="M888.3,253.5c1.3-2.4,2.7-4.9,4-7.3"/>
			</g>
		</g>
	</g>
</g>
<g id="B_L_arm">
	<path class="st13" d="M711,375c9.4,11.2,28,67,8,88c-21.8,22.9-89.7,32.5-100,26.9c-4.1-2.2-28.5-37.2-7.2-60.4
		c6.3-6.9,48.2-52.8,72.2-65.5C696.1,357.6,709.3,373,711,375z"/>
</g>
<g id="B_L_hand">
	<g id="Layer_70">
		<g>
			<path class="st8" d="M583,436.8c-5.4-32.3-15.9-65.6-15.9-65.6l17.8-17.4c0,0,20.8,40.3,30.9,59.4L583,436.8z"/>
			<path class="st13" d="M637.7,484.3c-7.5,7.5-14.7,7.2-18.7,5.6c-25.9-12-83.7-63.2-84.2-64.5l65.5-50.5
				c1.8,3.6,40.1,48.3,42.1,65.5C644.3,457.5,645.5,476.5,637.7,484.3z"/>
		</g>
	</g>
	<g id="fingers_1_">
		<path class="st8" d="M561.4,367.8c-3.6-3.7-6.6-8-10.1-11.6c-4-4.2-8.9-7.4-12.8-11.8c-0.5-0.6-2.7-3.7-2-4.3
			c0.4-0.3,1-0.8,1.5-0.8c2.1,0.3,6.8,3.3,9.3,4.4c1,0.4,0.7-0.4,0.9-0.4c-3.4-3.1-7.9-6.5-11.3-9.6c-0.7-0.6-1.4-1.2-1.7-2.1
			c-0.3-0.9-0.2-2,0.6-2.6c0.9-0.6,2.1-0.2,3,0.3c3.9,2.1,9.2,5.8,13.5,7.1c0.4,0.1,0,0,0.3-0.5c-2.5-3.2-6.2-6.7-8.7-9.8
			c-0.6-0.8-1.7-2.1-1.3-3.1c0.3-0.9,2.1-1.7,3-1.5c0.9,0.2,1.8,0.9,2.5,1.5c3.5,3,7.9,7.4,11.3,10.7c0.3,0.3,1.1,0.4,1,0
			c-1.6-3.3-6.3-9.2-7.8-11.1c-2.1-2.6-0.6-3.4,0.9-4.1c5.4,0.9,9.7,7.8,13.5,11.5c3.3,3.1,7,7.4,7.8,7c1.2-3.4-1-6.5-0.4-12.1
			c0.4-3.4,4.7-5.1,5.3-4.3c4.2,6.2,4.6,25.5,5.8,33c0,0,5,15.5-6.1,18.1C568,374.2,561.4,367.8,561.4,367.8z"/>
	</g>
</g>
<g id="B_Body">
	<g>
		<path class="st13" d="M809.8,363.4c16.4,25.9,23.3,63.7,17.7,273c-1.1,39.2-5.1,92.2-24.4,162.3
			c-110.4,21.1-198.5-85.9-215.4-106.1c38.5-69.7,79.5-138,91.1-283.3c0.7-9-0.7-45.1,7.5-46.4c6.9-1.1,15.5-2.2,24.2-2.7
			c15.5-0.8,28.2-1.3,41.8,0.1c10.4,1.1,9-8.5,16.7-6.9C775.3,354.8,806,357.4,809.8,363.4z"/>
		<path class="st17" d="M768,353.4l-7.2,126.7c0,0-75.9-116.8-71-118.3C694.6,360.3,768,353.4,768,353.4z"/>
		<g>
			<g>
				<path class="st17" d="M758.6,489.6c0.9,16.7,1.4,33.4,1.4,50.1c0,16.8-0.4,33.5-1.2,50.3c-0.8,16.8-2.1,33.5-3.8,50.2
					c-1.7,16.9-3.9,33.7-6.5,50.4c-2.6,16.6-5.6,33.2-9,49.7c-0.4,2-0.9,4.1-1.3,6.1c-0.4,1.9,2.5,2.7,2.9,0.8
					c3.5-16.6,6.7-33.2,9.4-49.9c2.7-16.7,4.9-33.4,6.8-50.2c1.8-16.8,3.2-33.6,4.2-50.5c1-16.8,1.5-33.7,1.6-50.5
					c0.1-16.8-0.3-33.6-1-50.4c-0.1-2.1-0.2-4.1-0.3-6.2C761.5,487.7,758.5,487.7,758.6,489.6L758.6,489.6z"/>
			</g>
		</g>
		<path class="st18" d="M747.3,408.5l-9.8-51.2l-25-5.5l-10.9,6.7C701.6,358.5,728.9,402.3,747.3,408.5z"/>
		<path class="st18" d="M746.3,408.5l-12.6-51.2l13.4-0.8l9.7,2C756.8,358.5,755.2,396.2,746.3,408.5z"/>
	</g>
</g>
<g id="B_neck">
	<g>
		<g>
			<path class="st8" d="M734.8,365l-9.1-3.9c-13,0.9-17.1,4.7-15.2-8.3l2.8-42.2l25.4,1.1l8.4,41.2
				C747.9,364.2,746.1,364.2,734.8,365z"/>
			<g>
				<path class="st19" d="M711.8,337.4l-6.7,6c0,0-1,7.8,5.3,11.9L711.8,337.4z"/>
				<polyline class="st20" points="716,380 722.2,384.8 735.3,364.8 742,363.9 753.2,374.8 755.6,368.2 750,362.7 730,365.6 
					719.9,373.8 716.1,381.2 				"/>
				<path class="st21" d="M739.1,365.1l-4.4-8.9c0,0-29.4-0.7-29.6-12.7c0,0-11,29.7,11.5,44.2l13.4-22L739.1,365.1z"/>
				<path class="st19" d="M751.1,345.8l-6-4.4l2,11.5C747.1,352.9,751.3,353.3,751.1,345.8z"/>
				<path class="st21" d="M742,355.8c0,0,8.4-2.6,9.1-10c0,0,10.4,16.6,9.1,29.6l-13.7-12.1l-7.3,1.8L742,355.8z"/>
			</g>
			<polygon class="st9" points="746.5,351.1 712.2,336.3 712.9,316.7 743.7,333.5 			"/>
		</g>
		<path class="st22" d="M705.8,342.8c1.7-1.5,3.4-3,5.1-4.5"/>
		<path class="st22" d="M703.9,345.1c-2.6,6.9-2.4,14.6-1.2,21.9c0.5,2.8,1.1,5.6,2.3,8.2c2.1,4.4,5.8,7.8,9.3,11.1"/>
		<path class="st22" d="M716.5,387.7c4.4-7.3,8.8-15,13.6-22"/>
		<path class="st22" d="M734.7,356.2c1.3,2.9,2.7,5.8,4.3,8.6"/>
		<path class="st22" d="M739.6,363.7c0.8-2.5,1.6-5.1,2.5-7.6"/>
		<path class="st22" d="M751.2,345.5c-0.5,4.4-3.5,8.4-7.6,10"/>
		<path class="st22" d="M752,346.6c4.8,8.2,8,18.4,8.3,27.9"/>
		<path class="st22" d="M745.3,341.2c1.2,1.5,3.7,2.9,5.4,3.9"/>
		<path class="st22" d="M705.3,344.1c0,2.3,1.8,4.2,3.7,5.6c6.4,4.5,14.7,5.5,22.5,6.3"/>
		<path class="st22" d="M738.9,365.1c-2.3-0.1-5.7,0.2-8,0.2"/>
		<path class="st22" d="M739.6,364.9c2-0.5,4-1.1,6-1.7"/>
		<path class="st22" d="M748.7,365.4c1.3,1.1,2.6,2.3,4,3.4c2.5,2.2,5.1,4.4,7.3,6.9"/>
	</g>
</g>
<g id="B_Face">
	<g>
		<path class="st8" d="M726,232c15.6-5.7,32.6,3.5,36.5,19.7c2.3,9.5,4.7,19.6,6.6,27.6c2.2,9.1,4.3,24.6,1.8,32.4
			c-0.8,2.7-16.4,26.2-23.5,26.6c0,0-14.7,0.3-30.8-6.9c-2.9-1.3-12.4-11.7-15.9-21.2l-12.1-35.6c-4.9-14.3,2.6-29.8,16.8-35
			L726,232z"/>
		<polyline class="st23" points="747.7,271.7 757,294.5 747,297.4 		"/>
		<path class="st24" d="M678.9,248.1"/>
		<path class="st25" d="M720.7,302.8c1.9,3.8,6.6,5.2,10.5,3.2c3.9-2,5.4-6.7,3.5-10.4c-1.9-3.8-6.6-5.2-10.5-3.2
			C720.3,294.4,718.8,299,720.7,302.8z"/>
		<path class="st25" d="M767.4,287.8c1-0.5,2.1-0.8,3.2-0.8c0.8,4.6,1.3,9.7,1.3,14.3c-3.1,0.6-6.4-0.8-7.8-3.7
			C762.3,294.1,763.7,289.7,767.4,287.8z"/>
	</g>
</g>
<g id="B_L_eye">
	<path class="st24" d="M727.3,281.3c1.3,2.4,3.5,3.7,5.1,2.9c1.6-0.8,1.8-3.4,0.6-5.9c-1.3-2.4-3.5-3.7-5.1-2.9
		C726.3,276.3,726.1,278.9,727.3,281.3z"/>
</g>
<g id="B_R_eye">
	<path class="st24" d="M758.2,274.7c0.8,2.5,2.8,4,4.5,3.5c1.7-0.5,2.4-3,1.7-5.4c-0.8-2.5-2.8-4-4.5-3.5
		C758.1,269.8,757.4,272.2,758.2,274.7z"/>
</g>
<g id="B_Mouth">
	<path class="st21" d="M759.9,306.3c0,0-7.4,25.9-19.9,0.6L759.9,306.3z"/>
</g>
<g id="B_L_ebr">
	<path class="st24" d="M731.7,263.6c0.4,1.4-4.3,1.2-6.3,2.7c-3.3,2.4-5,6-6.1,4C716.6,264.9,730.1,257.6,731.7,263.6z"/>
</g>
<g id="B_R_ebr">
	<path class="st24" d="M767,258.3c-0.4,1.5-3.1-0.6-5.8-0.4c-3.5,0.2-7.2,2.2-7.2,0.3C754.3,252.6,768.4,252.8,767,258.3z"/>
</g>
<g id="B_Hair">
	<g>
		<g>
			<path class="st24" d="M699.2,265.4c0,0,2.1,5.3,2.2,11.1c0.1,11.3-1.2,28.7,2.7,41.4c0,0-15-8-20.1-15.2
				c-3.6-5.2-13.6-27.7-13.6-27.7c-5-9.7-1.2-21.7,8.4-26.8l0,0c0,0,10.1,0.1,15.7,6.2C700.1,260.3,699.2,265.4,699.2,265.4z"/>
			<path class="st26" d="M683.9,260.6c1.1,2.7,2.1,5.4,3.2,8"/>
			<path class="st26" d="M683.4,266.7c0.7,2.2,1.3,4.5,2,6.7"/>
		</g>
		<g>
			<path class="st24" d="M678.9,248.1c-4.3-38,41.8-41.9,72.1-37.2c16.9,2.6,22.1,24.5,8,34.2c-10.9,7.5-27.4,17-59.8,20.3
				C699.2,265.4,678,260.5,678.9,248.1"/>
			<g>
				<path class="st26" d="M752,221.5c1.3,1,2.2,2.4,2.7,3.9c1.3,4-0.7,8.5-3.9,11.3c-3.1,2.8-7.2,4.2-11.2,5.6
					c-10.4,3.6-21.1,7-32,7.1"/>
				<path class="st26" d="M735.2,228.7c-1.1,2.3-3.9,3.2-6.3,3.8c-6,1.6-12.1,3.2-18.1,4.8"/>
				<path class="st26" d="M731.6,219.1c-5.4-1.8-11.5-1.4-16.6,1"/>
			</g>
		</g>
	</g>
</g>
<g id="B_ear">
	<g>
		<path class="st8" d="M681.9,296.8c3.5,7.2,10.3,11.2,15.1,8.9c4.8-2.4,8.4-9.2,4.8-16.4c-3.5-7.2-12.9-12.2-17.7-9.8
			C679.4,281.8,678.4,289.6,681.9,296.8z"/>
		<g>
			<path class="st27" d="M683,288.1c0.7-1.3,2.2-2.2,3.7-2.5c1.5-0.3,3.2-0.2,4.6,0.4c1.4,0.5,2.7,1.4,3.7,2.5
				c1,1.1,1.8,2.3,2.4,3.7c-1.4-0.5-2.6-1.2-3.8-1.8c-1.2-0.6-2.3-1.1-3.4-1.6c-1.1-0.4-2.2-0.7-3.4-0.9
				C685.7,287.8,684.5,287.8,683,288.1z"/>
		</g>
	</g>
</g>
<g id="B_Hat">
	<g>
		<g>
			<polygon class="st13" points="622.7,248.2 623.4,250.3 776.5,171.8 775.8,169.6 692.5,189.1 			"/>
		</g>
		<g>
			<polygon class="st28" points="623.4,250.3 706.7,230.8 776.5,171.8 693.2,191.2 			"/>
		</g>
		<g>
			<path class="st29" d="M666.5,266.5c28.2-19.2,58.2-34.6,89.1-45.7c2-0.7,3.2-2.9,2.6-4.7l-9.2-27c-0.5-1.4-2-2.1-3.6-1.5
				c-31.6,11.2-62.2,27-90.9,46.6c-1.4,1-2.2,2.8-1.7,4.2l9.2,27C662.6,267.3,664.7,267.7,666.5,266.5z"/>
			<path class="st10" d="M666.5,266.5c28.2-19.2,58.2-34.6,89.1-45.7c2-0.7,3.2-2.9,2.6-4.7l-9.2-27c-0.5-1.4-2-2.1-3.6-1.5
				c-31.6,11.2-62.2,27-90.9,46.6c-1.4,1-2.2,2.8-1.7,4.2l9.2,27C662.6,267.3,664.7,267.7,666.5,266.5z"/>
		</g>
	</g>
</g>
<g id="B_Thread">
	<g>
		<path class="st30" d="M802.6,295c0.3-0.1,0.6-0.4,0.7-0.8c0.3-0.9,0-2-0.8-2.5c-20.4-12.9-16.8-24.8-11.7-41.2
			c2.9-9.5,6.2-20.2,5-32.7c-3.3-34.3-38.6-41.5-38.9-41.5c-0.9-0.2-1.6,0.5-1.6,1.5c0,1,0.6,2,1.5,2.1c1.3,0.3,33,6.7,36,37.9
			c1.1,11.6-2,22-4.8,31.1c-4.9,16.2-9.6,31.5,13.5,46.1C801.7,295.2,802.2,295.2,802.6,295z"/>
		<path class="st30" d="M798,295.1c-1.1-2.7-0.2-5.7,1.9-6.7c2.1-1,4.7,0.4,5.8,3.1s0.2,5.7-1.9,6.7
			C801.7,299.2,799.1,297.8,798,295.1z M800.7,293.8c0.3,0.8,1.1,1.2,1.7,0.9c0.6-0.3,0.9-1.1,0.5-1.9c-0.3-0.8-1.1-1.2-1.7-0.9
			C800.7,292.2,800.4,293,800.7,293.8z"/>
	</g>
</g>
<g id="G_Pony">
	<g>
		<g>
			<path class="st31" d="M1354.2,498.9c-12.6-83-92.3-65.9-79.3-100c15.2-40-6-55.1-45.2-48.4l-1.9-0.5l-3.6,6.1
				c18.7,14.6,28.3,37.3,5.5,72.4c-53.9,83.1,30.9,60.6,18.9,108.7c-3.1,12.4,0.8,20.5,8.5,24.4c0,0-10.1,40-0.3,41
				C1367.9,614.9,1354.2,498.9,1354.2,498.9z"/>
		</g>
		<path class="st32" d="M1221.2,361.4L1221.2,361.4c4.6,6.2,14.1,5.6,17.8-1.2l2.3-4.1c3.7-6.7-0.6-14.9-8.2-15.7l-7-0.7
			L1221.2,361.4z"/>
		<path class="st33" d="M1243.1,365.9c5.9,3.3,9.7,9.7,11,16.3c1.3,6.6,0.5,13.5-1,20.1c-3.1,13.3-9.2,25.8-15.6,37.9
			c-2.9,5.5-5.9,11.1-7.1,17.3c-1.6,8.4,0.3,17.2,4.3,24.8c4,7.6,10,13.9,16.5,19.4"/>
		<path class="st33" d="M1261.3,440.6c-4.5,8.5-2.4,19.1,2.4,27.5c4.8,8.3,11.8,15.1,17.8,22.5c3.9,4.9,7.5,10.1,10.5,15.6
			c3.7,6.6,6.7,13.7,7.6,21.2c0.9,7.5-0.5,15.5-5,21.5"/>
		<path class="st33" d="M1302.5,455.2c14.7,11.7,25.2,28.7,29,47.1c3.8,18.4,1,38.2-7.8,54.8"/>
		<path class="st33" d="M1258.6,361.9c4.4,2,8,6,9.5,10.6s1,9.9-1.4,14.1"/>
	</g>
</g>
<g id="G_L_leg">
	<g id="Layer_41">
		<g>
			<g>
				<g>
					<polygon class="st8" points="1176.1,969 1154.1,971.1 1131.2,918.7 1164.5,905.6 					"/>
					<polygon class="st9" points="1131.2,918.7 1143,945.7 1172,945.8 1163.6,907.5 					"/>
				</g>
				<g>
					<path class="st10" d="M1073.8,727c8.4,66.1,49.6,208.6,49.6,208.6l49.1,1.3c0,0-18.7-143-22-197.8"/>
					<polygon class="st11" points="1120.5,942.1 1176.1,938.7 1173.3,923.8 1116.8,924.3 					"/>
					<path class="st12" d="M1085,777.5c3.6,14,5.6,32.4,9.4,45.8c11.1-3.1,46.1-5.5,63.6-11.2c-3-15.5-3.2-40.4-5.6-55.2L1085,777.5
						z"/>
				</g>
			</g>
		</g>
	</g>
	<g id="shoe">
		<g>
			<path class="st13" d="M1147.7,958.9l29,0.1c1.2,0,8.3,32.6,5.6,32.6c-11.4,0.1-16.8,0.1-31,0.1c-8.7,0-31.3,0-43.4,0
				c-5.6,0-0.8-13.8,8.8-21.5C1127.5,961.6,1146.8,958.9,1147.7,958.9z"/>
			<path class="st34" d="M1130.1,964.2c-2.5,0-4.8-0.4-6.2-1.5c-1-0.7-1.5-1.8-1.6-3c-0.1-0.9,0.4-1.4,0.8-1.7c2.9-2,14.7,3.4,16,4
				c0.2,0.1,0.3,0.3,0.3,0.5c0,0.2-0.2,0.4-0.4,0.5C1136.5,963.6,1133.2,964.2,1130.1,964.2z M1124.9,958.7c-0.6,0-1,0.1-1.3,0.3
				c-0.1,0.1-0.3,0.3-0.3,0.7c0.1,0.9,0.4,1.7,1.2,2.2c2.6,2,9.1,1.2,12.6,0.5C1133,960.6,1127.6,958.7,1124.9,958.7z"/>
			<path class="st34" d="M1138.8,963.1c-0.1,0-0.1,0-0.2,0c-3.5-1.4-10.9-7.4-10.5-10.3c0.1-0.6,0.5-1.4,2.1-1.6
				c6.3-0.7,9,10.8,9.1,11.3c0,0.2,0,0.4-0.2,0.5C1139,963.1,1138.9,963.1,1138.8,963.1z M1130.7,952.2c-0.1,0-0.3,0-0.4,0
				c-1.1,0.1-1.2,0.6-1.2,0.7c-0.3,1.9,5,6.7,8.8,8.7C1137.2,958.9,1134.8,952.2,1130.7,952.2z"/>
		</g>
	</g>
</g>
<g id="G_R_leg">
	<g id="Layer_43">
		<g>
			<g>
				<polygon class="st8" points="1369.4,773.3 1366.2,795.8 1308.5,791.7 1314.6,757.5 				"/>
				<polygon class="st9" points="1316.6,758.2 1310.4,792.4 1340.8,794.5 1343.5,766.1 				"/>
			</g>
			<g>
				<path class="st10" d="M1139.4,753.8c65.4,30.2,190.5,53.6,190.5,53.6l6-41.9c0,0-106.7-52.3-152.1-70.8"/>
				<polygon class="st11" points="1332.5,811.5 1337.9,761.4 1322.7,757.4 1314,809.7 				"/>
				<path class="st12" d="M1204.9,700.5l-26.8,68.1c14.8,4.5,23.7,8.6,38.7,12.2c10.2-9.7,26-45.4,27.9-58.9
					C1232.4,717.2,1216.2,705,1204.9,700.5z"/>
			</g>
		</g>
	</g>
	<g id="shoe_1_">
		<g>
			<path class="st13" d="M1352.1,794.2l-0.9-27.8c-0.2-1,30.5-6.1,31.8-0.8c2.2,9.4,7,55.8,3.6,65.5c-0.7,2-8.5-0.8-13.2-4.2
				C1363.4,819.7,1352.3,795.7,1352.1,794.2z"/>
			<path class="st34" d="M1359.8,807c-0.5,0.4-1.2,0.6-2,0.7c-0.9,0-1.4-0.4-1.6-0.7c-1.6-2.4,1.5-9.9,1.9-10.8
				c0.1-0.2,0.2-0.3,0.4-0.3c0.2,0,0.3,0.1,0.4,0.3c1.2,2.8,3,7.8,1.5,10.2C1360.2,806.5,1360,806.8,1359.8,807z M1358.5,797.5
				c-1,2.7-2.6,7.5-1.6,8.9c0.1,0.2,0.3,0.4,0.8,0.4c0.9,0,1.5-0.3,1.9-0.9C1360.5,804.4,1360.1,801.4,1358.5,797.5z"/>
			<path class="st34" d="M1354.8,804.8c-1.1,0.9-2.3,1.6-3.3,1.5c-0.5,0-1.4-0.2-1.9-1.6c-0.3-0.9-0.2-1.7,0.3-2.5
				c1.8-3,8.7-4.3,9-4.3c0.2,0,0.3,0,0.5,0.2c0.1,0.1,0.1,0.3,0.1,0.5C1359,800.2,1357,803,1354.8,804.8z M1351.8,801.8
				c-0.4,0.3-0.7,0.6-0.9,1c-0.3,0.5-0.4,1.1-0.2,1.7c0.2,0.8,0.6,0.9,0.9,0.9c1.9,0,5.4-3.7,6.7-6.3
				C1356.8,799.4,1353.5,800.3,1351.8,801.8z"/>
		</g>
	</g>
</g>
<g id="G_Neck">
	<g>
		<g>
			<path class="st8" d="M1183,410.9c2.9-3.2,3.5-7.9,3.5-7.9l6.2-39.7l-33.7,13.2l-9.3,19c-2.9,6-1,23.9,8,27.2
				C1166.1,425.6,1180.5,413.7,1183,410.9z"/>
			<polygon class="st9" points="1192.7,363.2 1190.9,376.1 1151,393 1159,376.4 			"/>
		</g>
	</g>
</g>
<g id="G_L_arm">
	<path class="st13" d="M1136,401c-0.4,0.2-83.6,1.4-84,0c-37-11-54,21-38,49c4.4,7.7,111,39,120,39L1136,401z"/>
</g>
<g id="G_R_arm">
	<path class="st13" d="M1169,479c6.1,14.6,91,43.6,98.1,44c18.9,3,40.9-22,11.9-61c-3.8-5.1-54-60-65-58
		C1186.4,409,1156,448,1169,479z"/>
</g>
<g id="G_R_hand">
	<g id="Layer_45">
		<g>
			<path class="st8" d="M1312.3,477.9c7-31.6,19.2-64.3,19.2-64.3l-17.1-17.1c0,0-22.9,39.5-34,58.3L1312.3,477.9z"/>
			<path class="st13" d="M1266.7,523c5.1,0.2,10.2-0.7,14.3-2.2c26.6-11.8,70-65.8,62.2-69.8l-49.6-23.4c-2,3.5-35.8,46.5-38.6,63.3
				C1252.2,507.8,1266.7,523,1266.7,523z"/>
		</g>
	</g>
	<g id="fingers">
		<path class="st8" d="M1337.5,410.3c3.8-3.6,7.1-7.8,10.8-11.4c4.2-4.1,9.3-7.3,13.5-11.5c0.6-0.6,2.9-3.7,2.3-4.2
			c-0.3-0.3-1-0.8-1.5-0.8c-2.1,0.3-7,3.2-9.6,4.3c-1,0.4-0.7-0.4-0.9-0.4c3.6-3,8.2-6.4,11.8-9.4c0.7-0.6,1.4-1.2,1.8-2.1
			c0.4-0.8,0.3-2-0.5-2.5c-0.9-0.6-2.1-0.2-3,0.3c-4,2-9.5,5.7-13.9,7c-0.4,0.1,0,0-0.3-0.5c2.7-3.1,6.5-6.5,9.3-9.6
			c0.7-0.8,1.8-2.1,1.5-3c-0.3-0.9-2-1.7-2.9-1.5c-0.9,0.2-1.9,0.9-2.6,1.4c-3.7,2.9-8.3,7.3-11.9,10.5c-0.3,0.3-1.1,0.4-1,0
			c1.7-3.3,6.8-9.1,8.4-10.9c2.2-2.5,0.7-3.4-0.7-4.1c-5.5,0.9-10.1,7.6-14.1,11.2c-3.4,3.1-7.4,7.3-8.2,6.9
			c-1.1-3.3,1.3-6.4,1-11.9c-0.2-3.4-4.5-5-5.1-4.2c-4.5,6-5.9,25-7.4,32.3c0,0-5.8,15.2,5.2,17.7
			C1330.5,416.6,1337.5,410.3,1337.5,410.3z"/>
	</g>
</g>
<g id="G_Body">
	<g>
		<path class="st13" d="M1106.3,419.3c-4.6,27.5-31.6,73.5-35.4,264.6c-0.7,35.8,4.9,70.5,5.6,117.9
			c110.2,19.2,189.5-51.2,207.5-69.6c-35.5-63.6-74.2-182.1-58.2-311.2c1-8.2-3.7-15.9-11.8-17.1c-6.9-1-15.5-2-24.2-2.4
			c-15.6-0.7-28.3-1.2-42,0.1c-10.5,1-22,2.9-29.8,4.4C1111.4,407.2,1107.4,412.8,1106.3,419.3z"/>
		<path class="st17" d="M1123,400l8.8,111.8c0,0,82.1-107.4,77.2-108.8c-3.6-1-45.1-5.7-68-5C1132.6,398.3,1124.3,399.6,1123,400z"
			/>
		<g>
			<g>
				<path class="st17" d="M1130.5,520.5c-3.3,30.6-4.9,61.4-4.7,92.2c0.2,30.6,2.1,61.3,5.8,91.7c2.1,17.2,4.7,34.3,7.9,51.3
					c0.4,1.9,3.2,1.1,2.9-0.8c-5.6-30.2-9.5-60.6-11.7-91.2c-2.1-30.6-2.5-61.3-1.2-91.9c0.8-17.2,2.1-34.3,3.9-51.4
					C1133.7,518.6,1130.7,518.6,1130.5,520.5L1130.5,520.5z"/>
			</g>
		</g>
		<path class="st15" d="M1148.6,446.4l12.2-46.8l29.3-2.6l9.9,4.1C1199.9,401.1,1167.3,440.8,1148.6,446.4z"/>
		<path class="st15" d="M1149.5,446.4l15-46.8L1147,396l-7,2C1140,398,1141.1,435.1,1149.5,446.4z"/>
		<path class="st8" d="M1147,396c-5,8,1,29,10.7,29.8c9.7,0.8,32.3-28.8,32.3-28.8s-17.2-2.9-23-3C1162,393.9,1147,396,1147,396z"/>
	</g>
</g>
<g id="G_face">
	<g>
		<g>
			<g>
				<path class="st31" d="M1152.9,330c-18.1-41.2,31.1-64.9,48.5-55.1c0,0,29.5,2.6,43.9,31.2c9.3,18.6-26.6,117.1-80.8,39.5
					C1157.4,335.6,1152.9,330,1152.9,330z"/>
			</g>
			<path class="st31" d="M1195.9,293.4c-19.6-17.9-44.2-6.9-45.3,21.9c-1.3,31.7,29.7,31.9,29.7,31.9L1195.9,293.4z"/>
			<path class="st8" d="M1232.8,302.3l-21.3,49.6c-1.3,3-12,18.3-21.9,21.6c-9.4,3.1-25.4,7.4-33.1,2.6c-7-4.4-11.7-22-11.9-29.7
				c-0.2-10.9,15.2-39.7,15.2-39.7c5.6-13.1,25.6-24.6,38.8-19L1232.8,302.3z"/>
			<polyline class="st35" points="1174.4,312.6 1156.1,337.3 1166.3,341.6 			"/>
			<path class="st31" d="M1219.4,350.5c0,0-31.5-33.5-21.8-68.9l5,0.9l34.6,19.8L1219.4,350.5z"/>
		</g>
		<path class="st31" d="M1193.2,281.8c-5.5-0.7-11.2,1.4-15,5.4c-3.8,4-5.5,9.9-4.5,15.3c1.7-4.5,4.7-8.4,8.6-11.2
			c-2.6,4.4-2.1,10.2,0.5,14.6c2.6,4.4,7,7.5,11.8,9.4c4.7,1.9,9.8,2.8,14.9,3.6c0.8,0.1,1.6,0.3,2.4,0
			c-6.9-6.4-11.6-15.2-13.1-24.5c-0.7-4-0.7-8.3,1.6-11.7"/>
		<path class="st36" d="M1186.9,346.6c0,3.4-2.8,6.1-6.2,6.1c-3.4,0-6.1-2.8-6.1-6.2c0-3.4,2.8-6.1,6.2-6.1
			C1184.2,340.4,1187,343.2,1186.9,346.6z"/>
		<path class="st36" d="M1145.8,343.8c3.4,0,6.2-2.7,6.2-6.1c0-2.6-1.6-4.8-3.9-5.8c-1.6,4.3-2.9,8.5-3.4,11.7
			C1145.1,343.8,1145.4,343.8,1145.8,343.8z"/>
		<path class="st33" d="M1193.5,285.2c-3.1,2.8-4.5,7-5,11.1c-0.3,2.8-0.2,5.7,0.9,8.3s3.4,4.7,6.2,5.2"/>
		<path class="st33" d="M1204.3,288.7c-1.5,2-1.7,4.7-1.6,7.3c0.4,6.6,2.5,13.1,6.2,18.6"/>
		<path class="st33" d="M1191.9,278.3c-4.6,0.4-8.9,3.2-11,7.3"/>
		<path class="st33" d="M1174.7,281.5c-9,4.1-16.1,12.4-18.7,21.9"/>
		<path class="st33" d="M1214.2,367.8c9-4.7,15.6-13.2,19.3-22.6c3.7-9.4,4.8-19.7,4.4-29.8"/>
		<path class="st33" d="M1226.7,316.1c0.1,5.2,0.1,10.4,0.2,15.6"/>
	</g>
</g>
<g id="G_Ear">
	<g>
		<path class="st8" d="M1223.5,350.3c-3.2,6.6-9.3,10.2-13.6,8.1c-4.4-2.1-8.4-9-5.2-15.6c3.2-6.6,12.3-10.3,16.6-8.2
			C1225.7,336.7,1226.7,343.7,1223.5,350.3z"/>
		<g>
			<path class="st27" d="M1222.4,342.5c-1.1-0.6-2.3-0.8-3.5-0.8c-1.2,0-2.3,0.2-3.4,0.7c-2.2,0.8-4.1,2.4-6.1,3.9
				c0.7-1,1.6-2,2.5-2.8c1-0.8,2-1.5,3.2-2c1.2-0.5,2.5-0.7,3.8-0.5C1220.3,341.1,1221.6,341.6,1222.4,342.5z"/>
		</g>
	</g>
</g>
<g id="G_L_ebr">
	<path class="st37" d="M1160.1,305.4c0,1.3,2.4,0,4.6,0.7c3,1,6.1,3.5,6.5,1.9C1172.2,303.1,1160.1,300.3,1160.1,305.4z"/>
</g>
<g id="G_R_ebr">
	<path class="st37" d="M1193.2,321.5c-1.1,0.9-2.8-2.8-4.8-4.2c-2.5-1.7-5.3-1.3-4.3-2.6C1187.1,310.9,1197,318.2,1193.2,321.5z"/>
</g>
<g id="G_mouth">
	<path class="st21" d="M1152.5,346.1l21.9,8.2C1174.4,354.3,1152.9,371.6,1152.5,346.1z"/>
</g>
<g id="G_R_eye">
	<path class="st38" d="M1187,330.6c-1.1,2.6-3.2,4.2-4.7,3.5c-1.5-0.6-1.8-3.3-0.7-5.9c1.1-2.6,3.2-4.2,4.7-3.5
		C1187.8,325.4,1188.1,328,1187,330.6z"/>
</g>
<g id="G_L_eye">
	<path class="st38" d="M1162.5,319.8c-1.1,2.6-3.2,4.2-4.7,3.5c-1.5-0.6-1.8-3.3-0.7-5.9c1.1-2.6,3.2-4.2,4.7-3.5
		C1163.3,314.6,1163.6,317.2,1162.5,319.8z"/>
</g>
<g id="G_Hat">
	<g>
		<g>
			<polygon class="st13" points="1292,314.7 1291.1,316.8 1140.9,239.9 1141.8,237.8 1224.6,256.9 			"/>
		</g>
		<g>
			<polygon class="st28" points="1291.1,316.8 1208.3,297.8 1140.9,239.9 1223.8,258.9 			"/>
		</g>
		<g>
			<path class="st29" d="M1247,332.7c-27.4-18.8-56.9-33.9-87.5-44.8c-1.9-0.7-3-2.8-2.4-4.6l10.6-26.5c0.6-1.4,2.2-2.1,3.7-1.5
				c31.2,11,61.3,26.4,89.2,45.7c1.4,1,2,2.8,1.5,4.2l-10.6,26.5C1250.9,333.5,1248.7,333.9,1247,332.7z"/>
			<path class="st10" d="M1247,332.7c-27.4-18.8-56.9-33.9-87.5-44.8c-1.9-0.7-3-2.8-2.4-4.6l10.6-26.5c0.6-1.4,2.2-2.1,3.7-1.5
				c31.2,11,61.3,26.4,89.2,45.7c1.4,1,2,2.8,1.5,4.2l-10.6,26.5C1250.9,333.5,1248.7,333.9,1247,332.7z"/>
		</g>
	</g>
</g>
<g id="G_thread">
	<g>
		<path class="st30" d="M1247,414.4c-0.3-0.1-0.7-0.3-0.9-0.6c-0.5-0.8-0.4-1.9,0.3-2.6c17.4-17.3,11.3-27.7,2.9-42
			c-4.8-8.2-10.3-17.6-11.8-29.7c-4-33.4,29.3-49,29.6-49.1c0.8-0.4,1.7,0.1,1.9,1c0.3,0.9-0.2,2-1,2.4
			c-1.3,0.6-31.1,14.6-27.5,44.9c1.4,11.3,6.6,20.3,11.3,28.2c8.3,14.1,16.1,27.4-3.6,47C1247.9,414.3,1247.4,414.5,1247,414.4z"/>
		<path class="st30" d="M1246.4,417.7c-2.3-0.4-3.8-3-3.3-5.8c0.5-2.8,2.8-4.8,5.1-4.4s3.8,3,3.3,5.9
			C1251,416.1,1248.7,418.1,1246.4,417.7z M1247.6,411.1c-0.7-0.1-1.3,0.4-1.5,1.2c-0.1,0.8,0.3,1.6,0.9,1.7
			c0.7,0.1,1.3-0.4,1.5-1.2S1248.2,411.2,1247.6,411.1z"/>
	</g>
</g>
<g id="G_L_hand">
	<g id="Layer_47">
		<g>
			<g>
				<path class="st8" d="M1006.4,365c0.9-20.9,10.9-54.3,10.9-54.3l21.7-0.9c0,0,1,25.6,3.8,46.8L1006.4,365z"/>
				<path class="st13" d="M1042,336.9L976,366c0,1.1,6.8,43.6,33,81c15,21.5,40.6-5.1,46.1-15.6
					C1060.7,420.4,1041.6,338.4,1042,336.9z"/>
			</g>
		</g>
	</g>
</g>
<g id="degree_fingers">
	<g>
		<g>
			<g>
				<polygon class="st14" points="965.4,344.2 955,321.3 1022.8,293.2 1088.6,260.4 1099,283.2 1031.2,311.4 				"/>
			</g>
			<path class="st15" d="M1046.7,309l-5.9,1.8c-0.6,0.2-1.2-0.2-1.4-0.8l-7.3-23.8c-0.2-0.6,0.2-1.2,0.8-1.4l5.9-1.8
				c0.6-0.2,1.2,0.2,1.4,0.8l7.3,23.8C1047.6,308.2,1047.3,308.8,1046.7,309z"/>
			<path class="st15" d="M1025,317.9l-5.2,3.7c-0.5,0.3-1.1,0.2-1.5-0.2l-14.5-20.4c-0.3-0.5-0.2-1.1,0.2-1.5l5.2-3.7
				c0.5-0.3,23.9-11.7,24.2-11.2l11.2,24.3C1045.1,309.3,1025.5,317.6,1025,317.9z"/>
		</g>
		<g>
			<path class="st8" d="M1000.9,293.8c1.4,5.6,6.5,13.6,12.5,11.6c2.9-1,4.4-5.3,2.1-7.3c0.5,2.6,4.4,3.2,6.8,2.1
				c2.4-1.1,3.2-4.6,1.5-6.7c-0.5,2.4,4.1,4.2,6.2,2.8s2.3-4.4,1.1-6.6c5.5,5.9,9.9-3.5,8-8.4c-1.4-3.8-9.2-11.6-13-6.6
				c-0.6,0.8-1,1.9-2,2c-0.5,0.1-1-0.2-1.5-0.3c-3.2-0.9-5.7,2.6-7.2,5.5c-1.6-1.8-4.8-1.9-6.5-0.1c-1,1-1.4,2.5-2.5,3.4
				c-1.1,0.9-3.3,0.7-3.3-0.7c-2,1.7-2.7,4.5-2.5,7.1C1000.6,292.4,1000.7,293.1,1000.9,293.8z"/>
			<path class="st16" d="M1010.1,286.1c1.5,3.3,3,6.7,4.6,10"/>
			<path class="st16" d="M1019.4,283.4c1.3,2.5,2.6,4.9,3.8,7.4"/>
			<path class="st16" d="M1026.6,280.1c0.8,2.7,2.1,5.2,4,7.3"/>
		</g>
	</g>
</g>
</svg>
